<svg id="fc2f96f5-2a43-4204-97a0-2d835eab2ea4" data-name="Calque 1" xmlns="http://www.w3.org/2000/svg" viewBox="0 0 400.77 501"><defs><style>.\39 2f255df-1cde-413c-880f-42cde674a831{fill:#fff;}</style></defs><title>logo 2</title><path class="92f255df-1cde-413c-880f-42cde674a831" d="M400.77,501H0V0H400.77ZM207.85,126c-1.39-5-2.77-9.91-4.14-14.79-4.61,8-2.35,19.5,6,28.78,2.65-4.74,5.21-9.35,7.78-14l1,.45c.53,3.06,1.07,6.12,1.65,9.4a7.47,7.47,0,0,0,1.52-.66,17.84,17.84,0,0,0,1.6-2c3.25,13.37,12.47,18.16,24.38,19.33,6.22.61,12.28,1.49,15.82,7.93.79-5.14-1.82-8.41-5.45-10.35a46.06,46.06,0,0,0-12.57-4.5c-7.49-1.48-13.38-5-15.56-12.37-1.42-4.79-1.12-10.11-1.45-15.2a28.33,28.33,0,0,1,.42-4.66l-1.33-1.18c-3.39,2.13-7.2,3.81-10.06,6.5-3.08,2.9-5.26,6.74-8.2,10.66a15.78,15.78,0,0,1-.87-1.55c-.25-.61-.41-1.26-.61-1.89,1.09-1.12,2.53-2.06,3.19-3.39,3.74-7.52,10.6-9.91,17.95-11.83.8,2.08,1.42,3.7,2.13,5.58l8-3.82c-3.94,9.39-5.66,18,1.63,25.68a5.14,5.14,0,0,0,.14-3.23c-2.2-8.09-1.15-15.24,6.13-20.41,2.56-1.81,4.28-6.66,8.75-2.91l10-8c-.34-.47-.69-.93-1-1.39-7.15-.41-13.17,2.78-19.17,7,.23-2.38.39-4,.68-7l-11.57,9c-7-7.7-13.41-.35-20.21.1v-6.31c-5.16,2.22-7.66,5.71-7.74,10.57C206.64,119.12,207.44,122.58,207.85,126Zm64.86,10.76c-3.32-1-6.07-1.67-8.68-2.68-4.83-1.85-6-4-3.31-8.38s5.87-9.12,9.89-12.4c22.69-18.55,45.66-36.77,68.65-54.95a29.89,29.89,0,0,1,8.83-4.52c5.15-1.75,9.32,0,11.77,4.72a29.28,29.28,0,0,1,2.62,8,65,65,0,0,1-3.72,36.75c-8.7,21.63-17.11,43.38-25.64,65.08-.58,1.47-1.08,3-1.72,4.76,2.44-2.16,4.44-4.07,6.6-5.79,1.77-1.43,3.66-2,4.52,1,1.23,4.29-3.76,18.64-7.42,21.52-6.81,5.37-7,5.79-.05,11.19,10.18,7.95,19.51,16.35,25.53,28.25,5.09,10.06,11.58,19.42,17.55,29,2.06,3.33,4.42,6.47,6.79,9.91-15.1,3-30-4.77-44.24,2.43,6.77,1.49,13.67,2.09,20.37,3.57s13.35,3.87,20.65,6l-20,7.26.09,1.88,12.47,5.81c-14.06,4.44-29.11,1.2-41.12,10.16,11.25-.77,22.48-2.36,34,2.68l-7.61,4.29,3.78,2.8-3.11,1.12,7.1,13.77-1.37,1-6.6-2.86c-1.37,5.72-2.08,11.25-4.08,16.27s-5.25,9.46-8,14.16l-1.06-.38v-8.38c-8.67,11.77-15.86,24.57-31.65,28.73.33-1.8.6-3.23.78-4.23l-37.73,9,3.4-5.63c-5,.39-8.91.59-12.81,1-9.17,1.06-17.54,4.11-24.15,10.8-1.73,1.77-2.77,4.22-4.14,6.35l1.32,1.18c7.44-6.46,14.8-13.13,26-11.88l-3.51,7.18c14.35-5.73,27.75-9.22,42.19-10.2-.44,2.48-.78,4.44-1.23,7,15.11-5.7,27.47-13.85,36.44-26.8a9.32,9.32,0,0,1,.08,2.75,32.26,32.26,0,0,0,.42,3.33c10.47-9.35,19.33-18.48,22.16-31.81l6.79,1.17c0-4.32.5-8.14-.13-11.76-.76-4.34-3.24-8.67,3.15-10.94-1.75-1.67-2.88-2.75-3.62-3.47l4.42-8.66c4.67-.12,6.53-4,7.77-8.36,1.44-5.09-4.7-2.82-5.78-5.6,9.4-4.1,11-5.58,12.68-11.72l-4.26-1.66,10.07-5,1.31-2.25c-1.87-1.09-4-1.89-5.58-3.33a101.58,101.58,0,0,1-24.27-33.29A103.71,103.71,0,0,0,348,203.37c-6.82-7.42-7.32-15.19-2.58-24.2,3-5.79,5.11-11.77,2.4-18.17-2.17-5.12-1.76-10,0-15,5.17-15,9.79-30.1,15.38-44.89a70.47,70.47,0,0,0,1.38-47c-.52-1.7.6-4.16,1.52-6,2-3.94,4.43-7.65,6.45-11.58.24-.47-1-1.71-2.27-3.62.84-2.25,2.21-5.88,3.83-10.18l-3.61,1.12c2.26-4.95,4.44-9.71,7-15.3-1.87.38-2.34.33-2.47.52a78.07,78.07,0,0,0-5,7.44c-8.28,15.3-19.78,27.06-34.15,37.3C308.21,73.51,281.93,95.15,255.08,116c-2.5,1.94-5.27,3.6-7.49,5.82-2.88,2.88-4.57,6.9-2.13,10.35,1.17,1.65,5.08,1.36,9.15,2.26,2.86,7.86,12.6,7.46,21.17,11l-13.33.64c9.59,9.87,21,12.19,33.15,12.76L283,162.62c10.21,7.83,21.15,9.6,32.85,11.26-2.1,4-3.87,7.39-6.23,11.92,10.08-4.75,13.55-12.36,15.95-22.06-8.83,3.77-17,5.83-26.06,2.28,15.11-6.19,15.11-6.19,16.17-11.26-18.09.76-25.78-.17-31.16-3.82l12-2.84.11-1.4L271.21,140C271.61,139.14,272.07,138.15,272.71,136.79ZM68.26,173.91c-1-2.59-1.4-3.8-1.86-5-8.93-22.8-17.8-45.62-26.81-68.38C35.53,90.29,35,79.68,36.46,69c2.28-16.83,10.62-20.63,24-10.29,23.21,17.91,45.94,36.43,68.62,55,3.89,3.18,6.86,7.69,9.61,12,2.26,3.53,1.2,6.79-3.13,8.27-2.93,1-5.91,1.9-9,2.89l1.68,3.08-25.27,6.68.24,1.45L114.37,151c-10.07,4.06-20.18,6-31.25,4.08a21.25,21.25,0,0,0,6.43,6.83c2.83,1.71,6.17,2.56,10.17,4.13-9.49,3.66-17.54,1.09-26.31-2.22,3.22,9.27,5.68,17.32,15.89,21.36l-5.73-11.05c6.12-1.26,11.76-1.93,17.06-3.64s10-4.4,15-6.66l-.47-1.66L103,158.68c12.4-.45,24.06-2.42,33.77-12.89H124.63c7.8-3.69,17.14-4.07,20.5-11.85,3.64-.31,7.55.24,8.1-.87a12.08,12.08,0,0,0,.38-8.25c-.66-2.12-2.94-3.94-4.86-5.42-12.65-9.79-25.4-19.46-38.13-29.15q-32.2-24.51-64.41-49a17.37,17.37,0,0,1-4.07-4.31c-5.22-8.13-10.28-16.36-15.43-24.53-.83-1.33-1.86-2.53-2.79-3.79l-1.81.95L30.26,26.2l-3.71-3.28-.87.45,3.39,10.1c-1.53,1.16-2.56,2.71-2.15,3.61,1.55,3.44,3,7.15,5.56,9.83,2.68,2.88,3.13,5.34,2,8.9a66,66,0,0,0,1.08,43.58c5.86,15.93,11.18,32.08,16.25,48.29a21,21,0,0,1,0,11.55A24.71,24.71,0,0,0,53.77,179c4.92,9.17,4.27,17.33-2.84,24.95a95.45,95.45,0,0,0-17.59,27.11c-6.15,14-15.38,25.66-26.44,36-.92.86-1.69,1.89-3.05,3.41l10.35,5.1L10,277.8c2.2,6.7,7.38,9.4,12.68,11-1.89,1.82-5.49,3.79-5.35,5.44.4,4.86,3,8.87,7.36,8.94l5,8.45-4.06,3.78c6.16,1.89,4.23,5.69,3.5,9.75s-.15,8.3-.15,13l6.82-1.62c2.6,13.9,11.74,22.72,21.24,31.26l1.24-.56v-5.73c9.08,14.25,21.39,22.11,36.36,27.64-.42-2.66-.71-4.49-1.09-6.91,14.6,1.12,28.08,4.7,42.05,10.16l-2.94-6.84c11.39-1.6,18.16,6,26.23,11.88-1.1-9.9-13.28-16.76-32.59-19.15-2.45-.31-5,0-8.5,0l3.44,4.1-.48.92-37.27-9c.7,1.55,1.42,3.12,2.2,4.83-16-4.06-23.66-17-31.52-29.61l-1.09.58c-.21,2.45-.43,4.9-.68,7.88-7.85-8.75-11-18.71-11.78-30.05l-7.34,3.32c-.4-6.42,2.82-10.64,7.2-14.75l-4.29-1.12,3.6-2.91-7.5-4.44c11.44-4.83,22.49-3.12,33.51-2.74-12.11-8.67-27.1-5.56-40.81-9.94l12.7-5.95-.09-1.86-18.93-6.77-.27-1.43,40.79-9c-14.64-6.73-29.55,1-44.46-2,1-1.66,1.83-3,2.73-4.37,5-7.47,11-14.46,14.92-22.46C40.5,224.88,50.42,210.12,66,199.52c4.73-3.22,4.52-4.89-.1-8.29-7.5-5.51-8.05-13.73-8.91-21.77-.35-3.37,1.85-4.13,4.45-2.07C63.46,169,65.23,171,68.26,173.91Zm108,102.62,1.25-.58a8.15,8.15,0,0,0,0-1.85c-2.36-9.36-4.54-18.76-7.19-28-2.37-8.28-6.18-15.87-13.44-21a39,39,0,0,0-29.5-6.68c-16.24,2.62-32.42,5.92-48.37,10-7.66,1.94-14.74,6.22-22.08,9.44l.5,1.9c1.71.17,3.42.37,5.13.52,5.3.48,10.65.63,15.9,1.46,11.82,1.86,22.78,5.35,31.83,14.11,4.67,4.53,11,7.32,16.62,10.9l1.18-1.79c-1.36-1-2.79-2-4.08-3.16-5.12-4.47-10.69-8.57-15.17-13.63a30.17,30.17,0,0,0-18.25-10.29c-3.07-.51-6.11-1.09-10.16-1.83A18.62,18.62,0,0,1,83,234.34c9.46-3.17,18.9-6.42,28.45-9.29,1.09-.33,3.61,1.2,4.16,2.44,2,4.4,3.22,9.1,5,13.6,3.66,9.56,10.47,15.38,20.81,16.17,6.11.46,12.29.11,18.43.13,5.08,0,8.77,1.43,10.4,7.15C171.37,268.77,174.15,272.55,176.23,276.53Zm166.73-37a15.16,15.16,0,0,0-1.88-2c-1.13-.69-2.35-1.24-3.49-1.93-12.51-7.65-26.74-10-40.73-12.82-9.92-2-20-4.37-30-4.65-16-.44-29.4,5.36-35.13,21.71-4,11.25-6.66,22.94-9.85,34.45-.13.46.44,1.11,1.09,2.6,2.38-4.54,4.6-8.07,6.16-11.87,2.75-6.72,3.92-7.67,11.41-7.64,5.64,0,11.31.31,16.92-.06,11-.74,18-6.88,21.67-17.12,1.45-4.08,2.89-8.16,4.22-12.27.93-2.9,2.32-4,5.54-2.79,3.55,1.37,7.38,2,11,3.23,6.13,2.07,12.19,4.36,18.28,6.55l-.25,1.27c-3.09.53-6.39.54-9.23,1.69-5.45,2.21-11.17,4.34-15.79,7.8-6.86,5.15-12.88,11.42-19.24,17.23a29,29,0,0,0-2,2.17l1.08,1.42c5.5-3.54,11.77-6.3,16.35-10.79,10.24-10,22.88-13,36.27-14.61C330.92,240.47,336.47,240.11,343,239.53Zm-21.17-138.3,0,.9-32.14,3.64c-.14.38-.27.76-.4,1.14L301,114.26l-25.79,5.48,6.95,4.29-.24,1H268.38c7.83,7.72,49.16,6.42,62.14-2-13.42.59-25.89,2.71-37.92-1.76,8.37-1.35,16.79-2,25.11-3.32,8.13-1.28,16.51-2.17,23.19-7.85-6.38.24-12.61,1.42-18.87,1.56-6.08.14-12.18-.78-18.27-1.23l.1-1.19L342,103.61l.42-1.56c-4.27-1.9-8.4-4.32-12.85-5.54s-9.21-1.2-13.83-1.73l-.11-1.94L344,89c.11-.56.21-1.12.31-1.68l-18.86-6.18-.37-1.06,22.81-5.23c-7.7-5.3-28.33.75-34.5,10.41H324l-23.8,10.29.27,1.42ZM86.48,85.3C77.94,75,58.22,69.45,51.77,75l22.73,5.2-.11,1.9c-6.88.74-13.81,1.35-18.84,7.51,4.79.77,9.57.33,14.23.89,4.82.58,9.53,2.13,14.28,3.26-21.91,4.45-23.3,4.91-26.62,9.9l38.82,5.76c-12.74,4.52-25.28,1.52-37.82,1,15,8.87,32.24,7.92,49.88,10.86-13.7,4.48-26.31,2.35-40,1.79,1.5,1.12,1.93,1.66,2.48,1.82C88.11,129.7,105.67,132,123.6,129c2.38-.4,4.61-1.63,6.91-2.47l-.4-1.74H115.42l8.73-5.11-25.63-5.41,11.33-7.36-.69-1.18-31.37-3.6v-.93l21.41-4.4-.06-1.38L75.52,85.3Zm-33,227.63c16.88,3.77,33.41,6.87,47.62,18.56a62.3,62.3,0,0,0-6.38.32c-8.17,1.36-16.42,2.44-24.45,4.43-4.07,1-7.78,3.67-8.73,7.81,9.87,5.64,19.2,11.37,28.91,16.33,4,2.06,8.84,2.81,13.4,3.48,2.6.39,5.4-.59,7.45-.86L80.86,342.1c.79-.05,1.45-.1,2.11-.12a68.07,68.07,0,0,1,27.28,5.14c4.19,1.65,8.92,1.93,13.4,2.83l.56-2.06-21.16-11.54,11-.48C104,315.63,72.49,303.63,53.45,312.93ZM77.9,389.22l-1.65.4c0,2.43-.19,4.87,0,7.28,1.34,14.77,9.42,26,20.34,34.86,16.4,13.31,33.52,25.73,50.36,38.48,1.4,1.06,3,1.82,5.71,3.4-1.22-5.18-2.14-9.11-3.06-13.05l1.1-.45,18.86,32.27c.37-16.88-23.78-52.44-40.83-59l8.49,14.07-1,.79c-8.3-5.81-16.58-11.65-24.9-17.42C96.11,420.3,81.53,409.25,77.9,389.22ZM297.06,336l-22.24,12.1c6.28,2.31,11.67.22,17-1.91a58.72,58.72,0,0,1,26.58-4L288.16,363c8.95,2.44,17.3,0,25.32-5,5.34-3.35,10.83-6.47,16.37-9.49,2.57-1.39,5.41-2.28,9.13-3.81-10.54-14.38-26.25-10.76-40.2-13.68,13.67-11.16,30.07-14.17,46.77-18.12-19.11-9.24-54.56,4.63-59.89,23.1ZM246.82,472.64c1.32-.15,1.72-.07,2-.23,22-14.48,43.51-29.58,61.87-48.62a42.48,42.48,0,0,0,11.72-22.24c.69-4,.12-8.16.12-13.42-2.56,6.31-4.05,11.62-6.76,16.21s-6.07,9.44-10.26,12.74c-14.06,11.09-28.61,21.54-43,32.23l-.89-.95,9.17-15.52C251.45,442.71,228,478,229.94,492c5.9-10.05,12-20.53,18.19-31l1.4.78c-.45,1.75-.93,3.49-1.37,5.25S247.33,470.48,246.82,472.64Zm-47-261.2c-14-21.52-12.64-45.09-14.62-68.11a4.73,4.73,0,0,0-2.44,1.79c-7.28,12.9-14.72,25.7-21.67,38.77a42.74,42.74,0,0,0-3.91,12.8c-1.41,8.33,4.1,19,9.6,21.13.53-7.55,0-15.68,1.92-23.19s6.2-14.29,9.45-21.39l1.75.58c0,5.13-.7,10.39.2,15.36a47.38,47.38,0,0,0,5.35,14.28C188,208,192.13,211.05,199.82,211.44Zm14.86-68-1.58.2c-.69,23-.39,46.17-13,67,7.41.81,15.43-5.61,17.45-14.48,1.73-7.58,1.91-15.51,2.76-23.2,8,13.83,16,28,11.07,45.76a13,13,0,0,0,4.24-3.19c7-8.29,8.9-17.87,4.15-27.48-7.14-14.45-15.33-28.38-23.12-42.5A11.33,11.33,0,0,0,214.68,143.46Zm-80.23,55.13c-9.57-.3-18.17-.87-26.75-.76a31.5,31.5,0,0,0-19.56,6.55c-2,1.56-3.51,3.68-5.7,6,10.22,3.87,19.47,5.85,30.36,2.73l-7.18-3.66.23-1.69,40,1.56c-7-10.05-3.3-21.41-.9-32.06l-15.11,1.81,7.33,8.33c-6.68-.74-11.93-4.77-18.25-1.41Zm182,12c-5.43-9.15-14.1-11.87-23.29-12.58s-18.24-.16-27.6-.16l14.61-11.54c-.24-.66-.47-1.31-.7-2l-17.12,2.89,7.08-8.33-15-1.43c2.17,10.55,6.28,21.89-1.36,33,13.65-3.69,26.77-2.46,39.89-.7l-6.4,3.58C297.64,216.09,306.88,214.36,316.49,210.56Zm-93.3,77.16-2.65-.07c0,2.08.09,4.16,0,6.23-.25,5-.5,9.93-.91,14.88-.28,3.44-2.07,4.23-5.5,3.54a63.82,63.82,0,0,0-13.83-1.38c-6.57.15-13.12,1-20.87,1.73-.61-7.73-1.24-15.71-1.88-23.69l-1.91.08c0,7.24-.67,14.57.28,21.69.49,3.64,3.79,7,6.06,10.27.52.74,2.41,1.42,3.06,1.06,5.25-3,6.33,2,6.18,4.3-.52,7.8,6.65,11.34,8.07,19.24,1.93-3.72,2.74-6.16,4.25-8,2.79-3.45,4.72-6.88,4.79-11.62,0-2.46,1.22-6.59,5.92-4a2.87,2.87,0,0,0,2.66-.68c2.3-2.91,5.93-5.83,6.25-9C224,304.17,223.28,295.91,223.19,287.72Zm-8.6,86.42-1.92.42c.81,8.3-.48,15.51-8.8,19.16l-3.48-11.41c-3.35,5.32-6.11,9.68-8.57,13.58l-21.33-18.81c-.39,1.47-.9,3.37-1.41,5.27l-1.59.14c-1.44-5.81-2.87-11.62-4.35-17.59l-3.27,1.22c-.64-1.52-1.15-2.72-1.66-3.91l-1.68.34c.4,3.64-.35,9.51,1.45,10.45,3.59,1.86,3,5.12,4.8,7.34,2.86,3.53,5.56,7.18,8.87,11.5,1.12-2.25,1.68-3.39,2.68-5.41l15.79,17.43,5-4.24c9.3,2,15-2.72,19.17-8.17,2.06.3,3.66,1.08,4.62.59,7.73-3.9,13.85-9.24,15.22-18.45.15-1.08.28-2.46,1-3.1,4.14-3.79,4.53-6.11.76-11.16.85,6.66-3.59,1.05-5.27,3.6.34,8.49-1.9,16.47-9.62,21.69C218.73,381,216.66,377.56,214.59,374.14ZM199,348.77l-.63-.92c-.92.1-1.86.13-2.77.31-8.79,1.73-17.51,4.3-26.38,5-14.39,1.2-27.09-2.92-35.64-15.62-5.5-8.18-7.88-17.49-9.6-27.08a37.84,37.84,0,0,0-3.74-11.22,9,9,0,0,0-8.61-5c2.17,8.24,4.66,15.9,6.15,23.74,1.91,10.09,5.64,19,12.78,26.55,17.58,18.66,48.5,14.86,64.53,8C196.6,351.9,197.66,350.07,199,348.77Zm91.17-54.32c-8.81.26-12.7,4.69-14.49,13.7-1.42,7.15-2.83,14.43-5.5,21.17-5.43,13.73-15.49,22-30.64,23.7-11.54,1.3-22.49-1.11-33.41-4.16-1.62-.45-3.25-.82-4.87-1.23l-.94,1.85c2.47,1.59,4.76,3.92,7.47,4.61a153,153,0,0,0,20,3.76c25.67,3,47.42-11.15,52.63-34.72C282.56,313.46,282.72,303.31,290.12,294.45Zm4-24.63.75,1.47-38.6,17A54.78,54.78,0,0,0,270,286.1c15.75-4.32,30.59-10.46,42.08-22.64,2.25-2.39,3.85-5.39,5.75-8.11l-1.1-1.15C292.4,263.14,269.21,277,241,271.35,248.64,282.1,263.24,281.41,294.15,269.82ZM82.35,254.06c2.46,14.77,43.56,37.4,60.78,34.18L105.72,272l.65-1.5c5.9,2.08,11.76,4.3,17.7,6.23,8.91,2.9,18,3.83,26.94.49,2.45-.91,4.59-2.66,6.86-4l-.34-1.68C130,276.89,107,263.23,82.35,254.06Zm107.3-113.8c8.59-10.23,10.7-21.89,5.51-30-1.23,6.59-.43,13.5-5.26,18.84-12.39-15.17-13.25-15.85-19.66-15.36.33,2.12.65,4.22,1,6.32,2,12.84-5.1,22.92-17.7,25.72A50,50,0,0,0,141,150.4c-3.56,1.9-5.59,5.35-5.38,10.27,4.05-8.37,11.92-7.4,18.77-8.39,11-1.61,18.35-7.21,21.54-18,.07-.23.41-.39.64-.58l2.46,2.68,1.91-10,1.1,0ZM85.88,301.55l1-1.48L72.83,290h39.71a46.07,46.07,0,0,0-23.33-7.23c-10.78-.48-21.58-.6-32.37-1-3.67-.15-7.33-.8-11.37-1.26C50.61,292,72,302.88,85.88,301.55Zm226.68-1.62.84,1.39c12.77,2.5,37.85-10.44,39.58-19.95-14.33.46-28.79.59-43.19,1.55-5.87.38-11.65,2.46-17.41,4-1.53.41-2.82,1.71-4.93,3.06h39.31Zm55.19-41.23c-7.12-9.8-13.93-19.34-20.94-28.74a186.58,186.58,0,0,0-11.91-14.68c-2-2.17-4.95-3.45-7.48-5.13l-1.07,1.16C340,222,345.82,237.66,354.93,253.1l-27.82-5.4C333.39,260.75,357.2,266.45,367.75,258.7Zm-337.13-.26c11.39,6,37,3.52,41.12-10.68l-25.87,5c7.84-15.26,13.58-31,26.81-41.9-7.42,1.94-12.12,7.11-16,12.93-7.85,11.92-14.84,24.45-26,33.77C30.6,257.63,30.65,257.87,30.62,258.44Zm139-148c9.23,2.53,17.15,5.72,20.31,16.07,5.26-9.82,2.7-18.55-5.31-20.84v5.77c-6.7-.39-13-8.13-19.72.07l-11.38-8.86-.45,6c-6-3.79-11.7-6.87-19.83-6.17a62.86,62.86,0,0,0,4.2,4.8c2.72,2.46,5.85,2.85,9.58,3.49,8.38,1.46,13.86,12.81,12.13,21.44-.39,2-.89,3.9-1.35,5.85,8.34-7.09,6.06-15.57,3.18-24.68l7.6,2.77Zm45,177.31,2.26.18c.53-4.8,1.66-9.62,1.47-14.39-.5-12.56-1.56-25.1-2.45-37.65a15.71,15.71,0,0,0-1-3.12C209.63,251.71,215.31,269.68,214.67,287.71Zm-30.52,0c-1.25-17.58,6.34-35.11-.19-52.61C186.27,252.67,176.9,270.17,184.15,287.7ZM195.51,152h-2.65c-.44,8.82-1.11,17.64-1.19,26.47,0,3,1.55,5.91,6,7.11C197.54,173.94,198,162.89,195.51,152ZM175.6,296.68c-5.39-10.73-2.48-22.68-10-32.43C162.16,278.36,166.36,293.06,175.6,296.68Zm29.49-144.63-1.82.06v32.95C209.09,181.76,210.17,163.42,205.09,152.05Zm29.44,113.28c-4.33,3.08-9.71,22.62-9.07,31.51C237.48,288.46,232.57,275.9,234.53,265.33ZM185.05,218.4c1.5,8.57,2.9,16.56,4.44,25.37C195.41,234.25,193.15,222.34,185.05,218.4Zm24.85,25.13c1.53-8.7,2.95-16.77,4.44-25.29C206.09,222.88,203.93,235,209.9,243.53Zm-47.43,82.6c1.3-2.15,2.66-3.43,2.63-4.67,0-1-2-2.79-2.74-2.61-1.26.29-3,1.8-3.07,2.9S160.9,324.1,162.47,326.13Zm88,18.76c1.29-2.21,2.64-3.51,2.58-4.73-.06-1-2.11-2.86-2.73-2.66-1.28.42-2.92,1.87-3.06,3.05S248.9,342.85,250.5,344.89Zm-3.59-2.07c-2-1.54-3.09-3.05-4.32-3.16-1-.09-3,1.67-2.91,2.42.15,1.28,1.44,3.19,2.52,3.4S244.72,344.15,246.91,342.82Zm-89.32-15.71c-1.49,2.09-3,3.26-3,4.49,0,1,1.84,3,2.51,2.87,1.3-.28,3.06-1.6,3.28-2.75S159,329.28,157.59,327.11Zm105.12,9.4c-2-1.57-3.29-3.27-4.37-3.16s-2.59,1.83-2.92,3.11c-.18.68,1.67,2.67,2.65,2.69C259.3,339.19,260.56,337.82,262.71,336.51Zm-113.23,8.34c1.23-2.2,2.55-3.52,2.46-4.73-.07-1-2.12-2.75-2.81-2.54-1.25.38-2.88,1.9-3,3S147.84,342.88,149.48,344.85Zm92.06-23.32c-2.17-1.34-3.42-2.72-4.64-2.68-1,0-2.9,2-2.72,2.65.39,1.29,1.78,3,3,3.14S239.47,323.09,241.54,321.53Zm-83-2.32c-2-1.52-3.32-3.18-4.37-3s-2.57,1.81-2.92,3.08c-.19.65,1.69,2.63,2.66,2.65C155.13,321.92,156.38,320.55,158.54,319.21Zm100.64,10.48c1.63-2,3.38-3.26,3.26-4.28-.14-1.19-1.77-2.64-3.06-3.07-.6-.21-2.65,1.63-2.72,2.64C256.57,326.18,257.91,327.48,259.18,329.69Zm-107-.5c-2.05-1.46-3.34-3.08-4.38-2.93s-2.52,1.83-2.81,3.08c-.17.68,1.71,2.59,2.68,2.6C148.9,331.94,150.11,330.56,152.21,329.19ZM255.84,329c-2.17-1.37-3.54-2.91-4.62-2.72s-2.41,2-2.6,3.26c-.11.72,1.89,2.48,2.87,2.44C252.69,331.92,253.83,330.46,255.84,329ZM245.5,314.66c-1.57,2-3.08,3.07-3.19,4.28-.08,1,1.66,3,2.38,2.91,1.26-.16,3.08-1.43,3.33-2.53S246.77,316.85,245.5,314.66Zm-3.38,12.53c-1.55,2-3.23,3.26-3.11,4.31s1.81,2.58,3.06,2.89c.7.18,2.66-1.65,2.69-2.61C244.8,330.57,243.43,329.32,242.12,327.19Zm-98-2.23c-2.16-1.31-3.56-2.82-4.6-2.61s-2.35,2-2.55,3.31c-.11.68,1.91,2.42,2.88,2.36C141.09,327.93,142.19,326.47,144.17,325Zm115.12-10c-2.14-1.35-3.51-2.9-4.53-2.69s-2.42,2-2.66,3.24c-.12.67,1.87,2.47,2.85,2.43C256.14,317.89,257.27,316.44,259.29,315ZM148.68,315c-2.13-1.37-3.51-2.93-4.55-2.73s-2.44,2-2.68,3.25c-.12.69,1.87,2.51,2.85,2.47C145.51,317.94,146.65,316.48,148.68,315Zm115.24.92c1.32-2.15,2.85-3.55,2.64-4.59s-2-2.39-3.31-2.59c-.7-.11-2.49,1.9-2.42,2.85C260.93,312.82,262.4,313.93,263.92,315.93Zm-128.4-8.71c-1.33,2.12-2.7,3.36-2.67,4.56,0,1,2,2.84,2.64,2.67,1.26-.33,2.95-1.74,3.09-2.88S137.05,309.26,135.52,307.22Zm5.69,24.71c-1.53,2-3.18,3.27-3.08,4.37s1.82,2.52,3.06,2.82c.69.17,2.62-1.66,2.64-2.62C143.85,335.28,142.5,334,141.21,331.93Zm15.83,15c1.32-2.12,2.85-3.5,2.65-4.53s-2-2.45-3.24-2.66c-.72-.11-2.55,1.88-2.49,2.82C154.05,343.76,155.53,344.88,157,346.9Z"/><path d="M272.71,136.79c-.64,1.36-1.1,2.35-1.5,3.19l25.45,6.72-.11,1.4-12,2.84c5.38,3.65,13.07,4.58,31.16,3.82-1.06,5.07-1.06,5.07-16.17,11.26,9.09,3.55,17.23,1.49,26.06-2.28-2.4,9.7-5.87,17.31-15.95,22.06,2.36-4.53,4.13-7.91,6.23-11.92-11.7-1.66-22.64-3.43-32.85-11.26l12.56-3.84c-12.13-.57-23.56-2.89-33.15-12.76l13.33-.64c-8.57-3.51-18.31-3.11-21.17-11-4.07-.9-8-.61-9.15-2.26-2.44-3.45-.75-7.47,2.13-10.35,2.22-2.22,5-3.88,7.49-5.82,26.85-20.83,53.13-42.47,80.79-62.18,14.37-10.24,25.87-22,34.15-37.3a78.07,78.07,0,0,1,5-7.44c.13-.19.6-.14,2.47-.52-2.56,5.59-4.74,10.35-7,15.3l3.61-1.12c-1.62,4.3-3,7.93-3.83,10.18,1.23,1.91,2.51,3.15,2.27,3.62-2,3.93-4.46,7.64-6.45,11.58-.92,1.82-2,4.28-1.52,6a70.47,70.47,0,0,1-1.38,47C357.61,115.86,353,131,347.82,146c-1.76,5.08-2.17,9.92,0,15,2.71,6.4.64,12.38-2.4,18.17-4.74,9-4.24,16.78,2.58,24.2a103.71,103.71,0,0,1,18.33,28.41,101.58,101.58,0,0,0,24.27,33.29c1.55,1.44,3.71,2.24,5.58,3.33l-1.31,2.25-10.07,5,4.26,1.66c-1.65,6.14-3.28,7.62-12.68,11.72,1.08,2.78,7.22.51,5.78,5.6-1.24,4.35-3.1,8.24-7.77,8.36L370,311.69c.74.72,1.87,1.8,3.62,3.47-6.39,2.27-3.91,6.6-3.15,10.94.63,3.62.13,7.44.13,11.76l-6.79-1.17C361,350,352.09,359.15,341.62,368.5a32.26,32.26,0,0,1-.42-3.33,9.32,9.32,0,0,0-.08-2.75c-9,12.95-21.33,21.1-36.44,26.8.45-2.53.79-4.49,1.23-7-14.44,1-27.84,4.47-42.19,10.2l3.51-7.18c-11.17-1.25-18.53,5.42-26,11.88L239.94,396c1.37-2.13,2.41-4.58,4.14-6.35,6.61-6.69,15-9.74,24.15-10.8,3.9-.45,7.82-.65,12.81-1l-3.4,5.63,37.73-9c-.18,1-.45,2.43-.78,4.23,15.79-4.16,23-17,31.65-28.73v8.38l1.06.38c2.71-4.7,6-9.17,8-14.16s2.71-10.55,4.08-16.27l6.6,2.86,1.37-1-7.1-13.77,3.11-1.12-3.78-2.8,7.61-4.29c-11.49-5-22.72-3.45-34-2.68,12-9,27.06-5.72,41.12-10.16l-12.47-5.81-.09-1.88,20-7.26c-7.3-2.17-13.88-4.54-20.65-6s-13.6-2.08-20.37-3.57c14.22-7.2,29.14.58,44.24-2.43-2.37-3.44-4.73-6.58-6.79-9.91-6-9.61-12.46-19-17.55-29-6-11.9-15.35-20.3-25.53-28.25-6.93-5.4-6.76-5.82.05-11.19,3.66-2.88,8.65-17.23,7.42-21.52-.86-3-2.75-2.41-4.52-1-2.16,1.72-4.16,3.63-6.6,5.79.64-1.78,1.14-3.29,1.72-4.76,8.53-21.7,16.94-43.45,25.64-65.08a65,65,0,0,0,3.72-36.75,29.28,29.28,0,0,0-2.62-8c-2.45-4.76-6.62-6.47-11.77-4.72a29.89,29.89,0,0,0-8.83,4.52c-23,18.18-46,36.4-68.65,55-4,3.28-7.14,7.91-9.89,12.4s-1.52,6.53,3.31,8.38C266.64,135.12,269.39,135.78,272.71,136.79Z"/><path d="M68.26,173.91c-3-2.91-4.8-4.89-6.85-6.52-2.6-2.06-4.8-1.3-4.45,2.07.86,8,1.41,16.26,8.91,21.77,4.62,3.4,4.83,5.07.1,8.29-15.55,10.6-25.47,25.36-33.62,41.93-3.94,8-9.9,15-14.92,22.46-.9,1.33-1.7,2.71-2.73,4.37,14.91,3,29.82-4.73,44.46,2l-40.79,9,.27,1.43,18.93,6.77.09,1.86L25,295.26c13.71,4.38,28.7,1.27,40.81,9.94-11-.38-22.07-2.09-33.51,2.74l7.5,4.44-3.6,2.91,4.29,1.12c-4.38,4.11-7.6,8.33-7.2,14.75l7.34-3.32c.78,11.34,3.93,21.3,11.78,30.05.25-3,.47-5.43.68-7.88l1.09-.58C62,362.08,69.62,375,85.66,379c-.78-1.71-1.5-3.28-2.2-4.83l37.27,9,.48-.92-3.44-4.1c3.52,0,6-.27,8.5,0,19.31,2.39,31.49,9.25,32.59,19.15-8.07-5.85-14.84-13.48-26.23-11.88l2.94,6.84c-14-5.46-27.45-9-42-10.16.38,2.42.67,4.25,1.09,6.91-15-5.53-27.28-13.39-36.36-27.64v5.73l-1.24.56c-9.5-8.54-18.64-17.36-21.24-31.26L29,338.11c0-4.68-.57-8.95.15-13s2.66-7.86-3.5-9.75l4.06-3.78-5-8.45c-4.36-.07-7-4.08-7.36-8.94-.14-1.65,3.46-3.62,5.35-5.44-5.3-1.57-10.48-4.27-12.68-11l4.19-2.23-10.35-5.1C5.21,269,6,267.92,6.9,267.06c11.06-10.35,20.29-22,26.44-36a95.45,95.45,0,0,1,17.59-27.11c7.11-7.62,7.76-15.78,2.84-24.95a24.71,24.71,0,0,1-1.92-19.76,21,21,0,0,0,0-11.55c-5.07-16.21-10.39-32.36-16.25-48.29a66,66,0,0,1-1.08-43.58c1.1-3.56.65-6-2-8.9-2.51-2.68-4-6.39-5.56-9.83-.41-.9.62-2.45,2.15-3.61l-3.39-10.1.87-.45,3.71,3.28L22.11,9.54l1.81-.95c.93,1.26,2,2.46,2.79,3.79,5.15,8.17,10.21,16.4,15.43,24.53a17.37,17.37,0,0,0,4.07,4.31q32.16,24.57,64.41,49c12.73,9.69,25.48,19.36,38.13,29.15,1.92,1.48,4.2,3.3,4.86,5.42a12.08,12.08,0,0,1-.38,8.25c-.55,1.11-4.46.56-8.1.87-3.36,7.78-12.7,8.16-20.5,11.85h12.15c-9.71,10.47-21.37,12.44-33.77,12.89l12.19,3.49.47,1.66c-5,2.26-9.85,5-15,6.66s-10.94,2.38-17.06,3.64l5.73,11.05c-10.21-4-12.67-12.09-15.89-21.36,8.77,3.31,16.82,5.88,26.31,2.22-4-1.57-7.34-2.42-10.17-4.13a21.25,21.25,0,0,1-6.43-6.83c11.07,1.92,21.18,0,31.25-4.08l-11.19-2.88-.24-1.45L128.21,140l-1.68-3.08c3.13-1,6.11-1.88,9-2.89,4.33-1.48,5.39-4.74,3.13-8.27-2.75-4.3-5.72-8.81-9.61-12-22.68-18.58-45.41-37.1-68.62-55C47.08,48.41,38.74,52.21,36.46,69c-1.44,10.64-.93,21.25,3.13,31.49,9,22.76,17.88,45.58,26.81,68.38C66.86,170.11,67.3,171.32,68.26,173.91Z"/><path d="M176.23,276.53c-2.08-4-4.86-7.76-6.07-12-1.63-5.72-5.32-7.13-10.4-7.15-6.14,0-12.32.33-18.43-.13-10.34-.79-17.15-6.61-20.81-16.17-1.73-4.5-3-9.2-5-13.6-.55-1.24-3.07-2.77-4.16-2.44-9.55,2.87-19,6.12-28.45,9.29a18.62,18.62,0,0,0-2.58,1.59c4.05.74,7.09,1.32,10.16,1.83a30.17,30.17,0,0,1,18.25,10.29c4.48,5.06,10,9.16,15.17,13.63,1.29,1.14,2.72,2.12,4.08,3.16l-1.18,1.79c-5.59-3.58-12-6.37-16.62-10.9-9-8.76-20-12.25-31.83-14.11-5.25-.83-10.6-1-15.9-1.46-1.71-.15-3.42-.35-5.13-.52l-.5-1.9c7.34-3.22,14.42-7.5,22.08-9.44,16-4,32.13-7.34,48.37-10a39,39,0,0,1,29.5,6.68c7.26,5.18,11.07,12.77,13.44,21,2.65,9.27,4.83,18.67,7.19,28a8.15,8.15,0,0,1,0,1.85Zm-14.6-39.87c-4.94,3.72-9.38,7.43-14.18,10.58s-9.36,2.3-11.48-3-2.5-11.17-3.86-16.75c-.38-1.58-1.18-3.88-2.35-4.3-2.67-1-5.39.32-5.33,3.41.1,5.2-.28,10.93,1.72,15.49,5.34,12.19,21.37,15.52,33.34,7.7C165.54,245.81,166,242.18,161.63,236.66Zm-14.15-9c-1.14,1.74-2.19,2.69-2.29,3.72-.06.71,1.19,1.54,1.86,2.32.84-.83,2.08-1.54,2.39-2.54C149.64,230.51,148.52,229.43,147.48,227.67Z"/><path d="M343,239.53c-6.49.58-12,.94-17.56,1.59-13.39,1.58-26,4.58-36.27,14.61-4.58,4.49-10.85,7.25-16.35,10.79l-1.08-1.42a29,29,0,0,1,2-2.17c6.36-5.81,12.38-12.08,19.24-17.23,4.62-3.46,10.34-5.59,15.79-7.8,2.84-1.15,6.14-1.16,9.23-1.69l.25-1.27c-6.09-2.19-12.15-4.48-18.28-6.55-3.62-1.22-7.45-1.86-11-3.23-3.22-1.24-4.61-.11-5.54,2.79-1.33,4.11-2.77,8.19-4.22,12.27-3.63,10.24-10.65,16.38-21.67,17.12-5.61.37-11.28.08-16.92.06-7.49,0-8.66.92-11.41,7.64-1.56,3.8-3.78,7.33-6.16,11.87-.65-1.49-1.22-2.14-1.09-2.6,3.19-11.51,5.9-23.2,9.85-34.45,5.73-16.35,19.16-22.15,35.13-21.71,10,.28,20.07,2.63,30,4.65,14,2.86,28.22,5.17,40.73,12.82,1.14.69,2.36,1.24,3.49,1.93A15.16,15.16,0,0,1,343,239.53Zm-106.29-3.32c-.44,3.23-2.31,7.26-1,9.27,5.44,8.45,17.72,10.86,27.7,6.3a21.11,21.11,0,0,0,12-23.89c-.56-2.75-1.41-5.16-5-4.95-3.94.22-2.85,3.13-3.28,5.45-1,5.32-1.63,10.82-3.56,15.8s-5.53,6.12-10.11,3.61C248,244.82,243.14,240.77,236.67,236.21Zm18.77-4.62c-1.37-1.27-2.29-2.64-2.82-2.5a4,4,0,0,0-2.44,2.21c-.19.52,1.08,2.25,1.66,2.23C252.84,233.5,253.81,232.54,255.44,231.59Z"/><path d="M321.79,101.23,300.44,97l-.27-1.42L324,85.26H313.41c6.17-9.66,26.8-15.71,34.5-10.41L325.1,80.08l.37,1.06,18.86,6.18c-.1.56-.2,1.12-.31,1.68l-28.35,3.84.11,1.94c4.62.53,9.39.52,13.83,1.73s8.58,3.64,12.85,5.54l-.42,1.56-38.18,5.59-.1,1.19c6.09.45,12.19,1.37,18.27,1.23,6.26-.14,12.49-1.32,18.87-1.56-6.68,5.68-15.06,6.57-23.19,7.85-8.32,1.3-16.74,2-25.11,3.32,12,4.47,24.5,2.35,37.92,1.76-13,8.43-54.31,9.73-62.14,2H282l.24-1-6.95-4.29L301,114.26l-11.75-7.35c.13-.38.26-.76.4-1.14l32.14-3.64Z"/><path d="M86.48,85.3h-11L99.15,95.43l.06,1.38-21.41,4.4v.93l31.37,3.6.69,1.18-11.33,7.36,25.63,5.41-8.73,5.11h14.69l.4,1.74c-2.3.84-4.53,2.07-6.91,2.47-17.93,3-35.49.69-52.81-4.19-.55-.16-1-.7-2.48-1.82,13.7.56,26.31,2.69,40-1.79-17.64-2.94-34.83-2-49.88-10.86,12.54.54,25.08,3.54,37.82-1l-38.82-5.76c3.32-5,4.71-5.45,26.62-9.9C79.31,92.58,74.6,91,69.78,90.45c-4.66-.56-9.44-.12-14.23-.89,5-6.16,12-6.77,18.84-7.51l.11-1.9L51.77,75C58.22,69.45,77.94,75,86.48,85.3Z"/><path d="M53.45,312.93c19-9.3,50.56,2.7,60.64,22.94l-11,.48,21.16,11.54-.56,2.06c-4.48-.9-9.21-1.18-13.4-2.83A68.07,68.07,0,0,0,83,342c-.66,0-1.32.07-2.11.12L111.27,363c-2,.27-4.85,1.25-7.45.86-4.56-.67-9.37-1.42-13.4-3.48-9.71-5-19-10.69-28.91-16.33,1-4.14,4.66-6.8,8.73-7.81,8-2,16.28-3.07,24.45-4.43a62.3,62.3,0,0,1,6.38-.32C86.86,319.8,70.33,316.7,53.45,312.93Z"/><path d="M77.9,389.22c3.63,20,18.21,31.08,33.42,41.63,8.32,5.77,16.6,11.61,24.9,17.42l1-.79-8.49-14.07c17.05,6.56,41.2,42.12,40.83,59l-18.86-32.27-1.1.45c.92,3.94,1.84,7.87,3.06,13.05-2.68-1.58-4.31-2.34-5.71-3.4-16.84-12.75-34-25.17-50.36-38.48-10.92-8.87-19-20.09-20.34-34.86-.22-2.41,0-4.85,0-7.28Z"/><path d="M297.06,336h-11.4c5.33-18.47,40.78-32.34,59.89-23.1-16.7,3.95-33.1,7-46.77,18.12,14,2.92,29.66-.7,40.2,13.68-3.72,1.53-6.56,2.42-9.13,3.81-5.54,3-11,6.14-16.37,9.49-8,5-16.37,7.45-25.32,5l30.23-20.82a58.72,58.72,0,0,0-26.58,4c-5.32,2.13-10.71,4.22-17,1.91Z"/><path d="M246.82,472.64c.51-2.16.91-3.88,1.34-5.59s.92-3.5,1.37-5.25l-1.4-.78c-6.15,10.49-12.29,21-18.19,31-2-14,21.51-49.33,40.84-59.2l-9.17,15.52.89.95c14.36-10.69,28.91-21.14,43-32.23,4.19-3.3,7.51-8.07,10.26-12.74s4.2-9.9,6.76-16.21c0,5.26.57,9.45-.12,13.42a42.48,42.48,0,0,1-11.72,22.24c-18.36,19-39.89,34.14-61.87,48.62C248.54,472.57,248.14,472.49,246.82,472.64Z"/><path d="M199.82,211.44c-7.69-.39-11.84-3.46-14.37-8a47.38,47.38,0,0,1-5.35-14.28c-.9-5-.2-10.23-.2-15.36l-1.75-.58c-3.25,7.1-7.57,13.94-9.45,21.39s-1.39,15.64-1.92,23.19c-5.5-2.17-11-12.8-9.6-21.13a42.74,42.74,0,0,1,3.91-12.8c6.95-13.07,14.39-25.87,21.67-38.77a4.73,4.73,0,0,1,2.44-1.79C187.18,166.35,185.83,189.92,199.82,211.44Z"/><path d="M214.68,143.46a11.33,11.33,0,0,1,1.93,2.06c7.79,14.12,16,28,23.12,42.5,4.75,9.61,2.88,19.19-4.15,27.48a13,13,0,0,1-4.24,3.19c4.89-17.77-3-31.93-11.07-45.76-.85,7.69-1,15.62-2.76,23.2-2,8.87-10,15.29-17.45,14.48,12.65-20.78,12.35-44,13-67Z"/><path d="M134.45,198.59,118.93,186c6.32-3.36,11.57.67,18.25,1.41l-7.33-8.33L145,177.3c-2.4,10.65-6.11,22,.9,32.06l-40-1.56-.23,1.69,7.18,3.66c-10.89,3.12-20.14,1.14-30.36-2.73,2.19-2.36,3.72-4.48,5.7-6a31.5,31.5,0,0,1,19.56-6.55C116.28,197.72,124.88,198.29,134.45,198.59Z"/><path d="M316.49,210.56c-9.61,3.8-18.85,5.53-29.84,2.77l6.4-3.58c-13.12-1.76-26.24-3-39.89.7,7.64-11.11,3.53-22.45,1.36-33l15,1.43-7.08,8.33,17.12-2.89c.23.65.46,1.3.7,2L265.6,197.82c9.36,0,18.53-.55,27.6.16S311.06,201.41,316.49,210.56Z"/><path d="M223.19,287.72c.09,8.19.79,16.45,0,24.55-.32,3.2-4,6.12-6.25,9a2.87,2.87,0,0,1-2.66.68c-4.7-2.61-5.88,1.52-5.92,4-.07,4.74-2,8.17-4.79,11.62-1.51,1.86-2.32,4.3-4.25,8-1.42-7.9-8.59-11.44-8.07-19.24.15-2.33-.93-7.28-6.18-4.3-.65.36-2.54-.32-3.06-1.06-2.27-3.3-5.57-6.63-6.06-10.27-.95-7.12-.28-14.45-.28-21.69l1.91-.08c.64,8,1.27,16,1.88,23.69,7.75-.69,14.3-1.58,20.87-1.73a63.82,63.82,0,0,1,13.83,1.38c3.43.69,5.22-.1,5.5-3.54.41-4.95.66-9.91.91-14.88.1-2.07,0-4.15,0-6.23Z"/><path d="M214.59,374.14c2.07,3.42,4.14,6.84,6.36,10.48,7.72-5.22,10-13.2,9.62-21.69,1.68-2.55,6.12,3.06,5.27-3.6,3.77,5.05,3.38,7.37-.76,11.16-.7.64-.83,2-1,3.1-1.37,9.21-7.49,14.55-15.22,18.45-1,.49-2.56-.29-4.62-.59-4.14,5.45-9.87,10.17-19.17,8.17l-5,4.24-15.79-17.43c-1,2-1.56,3.16-2.68,5.41-3.31-4.32-6-8-8.87-11.5-1.79-2.22-1.21-5.48-4.8-7.34-1.8-.94-1-6.81-1.45-10.45l1.68-.34c.51,1.19,1,2.39,1.66,3.91l3.27-1.22c1.48,6,2.91,11.78,4.35,17.59l1.59-.14c.51-1.9,1-3.8,1.41-5.27l21.33,18.81c2.46-3.9,5.22-8.26,8.57-13.58l3.48,11.41c8.32-3.65,9.61-10.86,8.8-19.16Z"/><path d="M199,348.77c-1.29,1.3-2.35,3.13-3.91,3.8-16,6.86-46.95,10.66-64.53-8-7.14-7.57-10.87-16.46-12.78-26.55-1.49-7.84-4-15.5-6.15-23.74a9,9,0,0,1,8.61,5,37.84,37.84,0,0,1,3.74,11.22c1.72,9.59,4.1,18.9,9.6,27.08,8.55,12.7,21.25,16.82,35.64,15.62,8.87-.74,17.59-3.31,26.38-5,.91-.18,1.85-.21,2.77-.31Z"/><path d="M290.12,294.45c-7.4,8.86-7.56,19-9.7,28.68-5.21,23.57-27,37.76-52.63,34.72a153,153,0,0,1-20-3.76c-2.71-.69-5-3-7.47-4.61l.94-1.85c1.62.41,3.25.78,4.87,1.23C217,351.91,228,354.32,239.49,353c15.15-1.7,25.21-10,30.64-23.7,2.67-6.74,4.08-14,5.5-21.17C277.42,299.14,281.31,294.71,290.12,294.45Z"/><path d="M294.15,269.82c-30.91,11.59-45.51,12.28-53.15,1.53,28.21,5.68,51.4-8.21,75.76-17.15l1.1,1.15c-1.9,2.72-3.5,5.72-5.75,8.11-11.49,12.18-26.33,18.32-42.08,22.64a54.78,54.78,0,0,1-13.73,2.18l38.6-17Z"/><path d="M82.35,254.06c24.66,9.17,47.64,22.83,75.18,17.45l.34,1.68c-2.27,1.37-4.41,3.12-6.86,4-9,3.34-18,2.41-26.94-.49-5.94-1.93-11.8-4.15-17.7-6.23l-.65,1.5,37.41,16.24C125.91,291.46,84.81,268.83,82.35,254.06Z"/><path d="M189.65,140.26l-7.57-13.9-1.1,0-1.91,10-2.47-2.68c-.22.19-.56.35-.63.58-3.19,10.8-10.53,16.4-21.54,18-6.85,1-14.72,0-18.77,8.39-.21-4.92,1.82-8.37,5.38-10.27a50,50,0,0,1,12.48-4.66c12.6-2.8,19.73-12.88,17.7-25.72-.33-2.1-.65-4.2-1-6.32,6.41-.49,7.27.19,19.66,15.36,4.83-5.34,4-12.25,5.26-18.84C200.35,118.37,198.24,130,189.65,140.26Z"/><path d="M207.8,126c.2.63.36,1.28.61,1.89a15.78,15.78,0,0,0,.87,1.55c2.94-3.92,5.12-7.76,8.2-10.66,2.86-2.69,6.67-4.37,10.06-6.5l1.33,1.18a28.33,28.33,0,0,0-.42,4.66c.33,5.09,0,10.41,1.45,15.2,2.18,7.33,8.07,10.89,15.56,12.37a46.06,46.06,0,0,1,12.57,4.5c3.63,1.94,6.24,5.21,5.45,10.35-3.54-6.44-9.6-7.32-15.82-7.93-11.91-1.17-21.13-6-24.38-19.33a17.84,17.84,0,0,1-1.6,2,7.47,7.47,0,0,1-1.52.66c-.58-3.28-1.12-6.34-1.65-9.4l-1-.45c-2.57,4.6-5.13,9.21-7.78,14-8.34-9.28-10.6-20.81-6-28.78,1.37,4.88,2.75,9.83,4.14,14.79Z"/><path d="M85.88,301.55C72,302.88,50.61,292,45.47,280.49c4,.46,7.7,1.11,11.37,1.26,10.79.43,21.59.55,32.37,1A46.07,46.07,0,0,1,112.54,290H72.83L86.9,300.07Z"/><path d="M312.56,299.93l14.2-9.95H287.45c2.11-1.35,3.4-2.65,4.93-3.06,5.76-1.54,11.54-3.62,17.41-4,14.4-1,28.86-1.09,43.19-1.55-1.73,9.51-26.81,22.45-39.58,19.95Z"/><path d="M367.75,258.7c-10.55,7.75-34.36,2.05-40.64-11l27.82,5.4c-9.11-15.44-15-31.1-28.58-41.79l1.07-1.16c2.53,1.68,5.49,3,7.48,5.13A186.58,186.58,0,0,1,346.81,230C353.82,239.36,360.63,248.9,367.75,258.7Z"/><path d="M30.62,258.44c0-.57,0-.81.06-.88,11.21-9.32,18.2-21.85,26.05-33.77,3.83-5.82,8.53-11,16-12.93-13.23,10.91-19,26.64-26.81,41.9l25.87-5C67.61,262,42,264.48,30.62,258.44Z"/><path d="M207.85,126c-.41-3.45-1.21-6.91-1.16-10.35.08-4.86,2.58-8.35,7.74-10.57v6.31c6.8-.45,13.17-7.8,20.21-.1l11.57-9c-.29,3-.45,4.6-.68,7,6-4.25,12-7.44,19.17-7,.34.46.69.92,1,1.39l-10,8c-4.47-3.75-6.19,1.1-8.75,2.91-7.28,5.17-8.33,12.32-6.13,20.41a5.14,5.14,0,0,1-.14,3.23c-7.29-7.72-5.57-16.29-1.63-25.68l-8,3.82c-.71-1.88-1.33-3.5-2.13-5.58-7.35,1.92-14.21,4.31-17.95,11.83-.66,1.33-2.1,2.27-3.19,3.39Z"/><path d="M169.66,110.4l-1,5.7-7.6-2.77c2.88,9.11,5.16,17.59-3.18,24.68.46-1.95,1-3.89,1.35-5.85,1.73-8.63-3.75-20-12.13-21.44-3.73-.64-6.86-1-9.58-3.49a62.86,62.86,0,0,1-4.2-4.8c8.13-.7,13.83,2.38,19.83,6.17l.45-6,11.38,8.86c6.72-8.2,13-.46,19.72-.07v-5.77c8,2.29,10.57,11,5.31,20.84C186.81,116.12,178.89,112.93,169.66,110.4Z"/><path d="M214.67,287.71c.64-18-5-36,.24-55a15.71,15.71,0,0,1,1,3.12c.89,12.55,2,25.09,2.45,37.65.19,4.77-.94,9.59-1.47,14.39Z"/><path d="M184.15,287.7c-7.25-17.53,2.12-35-.19-52.61C190.49,252.59,182.9,270.12,184.15,287.7Z"/><path d="M195.51,152c2.47,10.85,2,21.9,2.11,33.59-4.4-1.2-6-4.1-6-7.11.08-8.83.75-17.65,1.19-26.47Z"/><path d="M175.6,296.68c-9.24-3.62-13.44-18.32-10-32.43C173.12,274,170.21,286,175.6,296.68Z"/><path d="M205.09,152.05c5.08,11.37,4,29.71-1.82,33V152.11Z"/><path d="M234.53,265.33c-2,10.57,2.95,23.13-9.07,31.51C224.82,288,230.2,268.41,234.53,265.33Z"/><path d="M185.05,218.4c8.1,3.94,10.36,15.85,4.44,25.37C188,235,186.55,227,185.05,218.4Z"/><path d="M209.9,243.53c-6-8.56-3.81-20.65,4.44-25.29C212.85,226.76,211.43,234.83,209.9,243.53Z"/><path d="M162.47,326.13c-1.57-2-3.26-3.27-3.18-4.38s1.81-2.61,3.07-2.9c.73-.18,2.72,1.65,2.74,2.61C165.13,322.7,163.77,324,162.47,326.13Z"/><path d="M250.5,344.89c-1.6-2-3.33-3.29-3.21-4.34s1.78-2.63,3.06-3.05c.62-.2,2.67,1.66,2.73,2.66C253.14,341.38,251.79,342.68,250.5,344.89Z"/><path d="M246.91,342.82c-2.19,1.33-3.62,2.86-4.71,2.66s-2.37-2.12-2.52-3.4c-.09-.75,1.95-2.51,2.91-2.42C243.82,339.77,244.93,341.28,246.91,342.82Z"/><path d="M157.59,327.11c1.4,2.17,3,3.56,2.78,4.61s-2,2.47-3.28,2.75c-.67.14-2.55-1.88-2.51-2.87C154.64,330.37,156.1,329.2,157.59,327.11Z"/><path d="M262.71,336.51c-2.15,1.31-3.41,2.68-4.64,2.64-1,0-2.83-2-2.65-2.69.33-1.28,1.79-3,2.92-3.11S260.68,334.94,262.71,336.51Z"/><path d="M149.48,344.85c-1.64-2-3.39-3.16-3.32-4.23s1.72-2.66,3-3c.69-.21,2.74,1.56,2.81,2.54C152,341.33,150.71,342.65,149.48,344.85Z"/><path d="M241.54,321.53c-2.07,1.56-3.37,3.26-4.4,3.11s-2.57-1.85-3-3.14c-.18-.62,1.72-2.61,2.72-2.65C238.12,318.81,239.37,320.19,241.54,321.53Z"/><path d="M158.54,319.21c-2.16,1.34-3.41,2.71-4.63,2.68-1,0-2.85-2-2.66-2.65.35-1.27,1.77-2.93,2.92-3.08S156.5,317.69,158.54,319.21Z"/><path d="M259.18,329.69c-1.27-2.21-2.61-3.51-2.52-4.71.07-1,2.12-2.85,2.72-2.64,1.29.43,2.92,1.88,3.06,3.07C262.56,326.43,260.81,327.67,259.18,329.69Z"/><path d="M152.21,329.19c-2.1,1.37-3.31,2.75-4.51,2.75-1,0-2.85-1.92-2.68-2.6.29-1.25,1.69-2.93,2.81-3.08S150.16,327.73,152.21,329.19Z"/><path d="M255.84,329c-2,1.46-3.15,2.92-4.35,3-1,0-3-1.72-2.87-2.44.19-1.26,1.51-3.08,2.6-3.26S253.67,327.63,255.84,329Z"/><path d="M245.5,314.66c1.27,2.19,2.75,3.62,2.52,4.66s-2.07,2.37-3.33,2.53c-.72.09-2.46-2-2.38-2.91C242.42,317.73,243.93,316.64,245.5,314.66Z"/><path d="M242.12,327.19c1.31,2.13,2.68,3.38,2.64,4.59,0,1-2,2.79-2.69,2.61-1.25-.31-2.94-1.76-3.06-2.89S240.57,329.2,242.12,327.19Z"/><path d="M144.17,325c-2,1.51-3.08,3-4.27,3.06-1,.06-3-1.68-2.88-2.36.2-1.27,1.45-3.08,2.55-3.31S142,323.65,144.17,325Z"/><path d="M259.29,315c-2,1.48-3.15,2.93-4.34,3-1,0-3-1.76-2.85-2.43.24-1.27,1.54-3,2.66-3.24S257.15,313.61,259.29,315Z"/><path d="M148.68,315c-2,1.47-3.17,2.93-4.38,3-1,0-3-1.78-2.85-2.47.24-1.27,1.56-3,2.68-3.25S146.55,313.64,148.68,315Z"/><path d="M263.92,315.93c-1.52-2-3-3.11-3.09-4.33-.07-1,1.72-3,2.42-2.85,1.28.2,3.08,1.48,3.31,2.59S265.24,313.78,263.92,315.93Z"/><path d="M135.52,307.22c1.53,2,3.19,3.31,3.06,4.35s-1.83,2.55-3.09,2.88c-.67.17-2.61-1.69-2.64-2.67C132.82,310.58,134.19,309.34,135.52,307.22Z"/><path d="M141.21,331.93c1.29,2.11,2.64,3.35,2.62,4.57,0,1-2,2.79-2.64,2.62-1.24-.3-3-1.74-3.06-2.82S139.68,334,141.21,331.93Z"/><path d="M157,346.9c-1.51-2-3-3.14-3.08-4.37-.06-.94,1.77-2.93,2.49-2.82,1.26.21,3,1.54,3.24,2.66S158.36,344.78,157,346.9Z"/><path class="92f255df-1cde-413c-880f-42cde674a831" d="M161.63,236.66c4.41,5.52,3.91,9.15-2.14,13.1-12,7.82-28,4.49-33.34-7.7-2-4.56-1.62-10.29-1.72-15.49-.06-3.09,2.66-4.37,5.33-3.41,1.17.42,2,2.72,2.35,4.3,1.36,5.58,1.77,11.49,3.86,16.75s6.61,6.23,11.48,3S156.69,240.38,161.63,236.66Z"/><path class="92f255df-1cde-413c-880f-42cde674a831" d="M147.48,227.67c1,1.76,2.16,2.84,2,3.5-.31,1-1.55,1.71-2.39,2.54-.67-.78-1.92-1.61-1.86-2.32C145.29,230.36,146.34,229.41,147.48,227.67Z"/><path class="92f255df-1cde-413c-880f-42cde674a831" d="M236.67,236.21c6.47,4.56,11.3,8.61,16.71,11.59,4.58,2.51,8.21,1.25,10.11-3.61s2.57-10.48,3.56-15.8c.43-2.32-.66-5.23,3.28-5.45,3.61-.21,4.46,2.2,5,4.95a21.11,21.11,0,0,1-12,23.89c-10,4.56-22.26,2.15-27.7-6.3C234.36,243.47,236.23,239.44,236.67,236.21Z"/><path class="92f255df-1cde-413c-880f-42cde674a831" d="M255.44,231.59c-1.63.95-2.6,1.91-3.6,1.94-.58,0-1.85-1.71-1.66-2.23a4,4,0,0,1,2.44-2.21C253.15,229,254.07,230.32,255.44,231.59Z"/></svg>