<svg id="9b7a5a9e-e3dd-4e51-b95f-904eed34ed82" data-name="Calque 1" xmlns="http://www.w3.org/2000/svg" viewBox="0 0 443.92 562.83"><defs><style>.\37 f44bf27-4bb3-42ae-9c97-01dfa5fed2dd{fill:#fff;}</style></defs><title>M13695</title><path class="7f44bf27-4bb3-42ae-9c97-01dfa5fed2dd" d="M1,1H444.92V563.85H1ZM151.23,253.27c-2.54,3.56-.51,6.42,1.34,9.39,2.33,3.72,4.47,7.56,6.79,11.29,1.12,1.79,2.62,3.37,3.68,5.19.87,1.47,2,3.19,1.89,4.77-.19,5.22-.84,10.43-1.28,15.27l6.84,2.48c-7.28-2-14.05-.79-20.65,2.75s-9.11,3-14.47-2.09c-.28-.27-.85-.22-2.29-.54.51,1.84.89,3.08,1.19,4.33.66,2.7,1.81,5.4,1.82,8.1,0,9.8,5.23,17.44,10.76,24.55s14.14,9.39,22.75,11c4.65.87,9.22,2.28,13.89,2.89,3.87.5,8,1,11.73.1,10.48-2.44,20.8-5.57,31.2-8.39a5.52,5.52,0,0,1,1.82.18l.92,1.43c-1.8,1.4-3.44,3.11-5.43,4.15-11.43,6-23,11.69-34.36,17.91-2.44,1.34-3.94,4.41-5.87,6.68.41.44.82.87,1.22,1.31l23.12-9.59.76,1.53c-5.54,10.6-15.09,17.44-24.12,24.51,2.66,5.58,6.46,1.64,10.06,2.09A89,89,0,0,1,187,402.7a20.23,20.23,0,0,0-2.23,3.5c1.3-.13,2.77.08,3.88-.45,7.45-3.54,12.91-8.82,17.28-16.13,4.94-8.25,12.54-14.76,15.44-24.56.73-2.46,4.94-3.89,8.62-6.58v32.57a12,12,0,0,0,2.74-6.07c.86-7.59,1.37-15.21,2.19-22.8a45.09,45.09,0,0,1,1.62-6.45l2.19.21c1.46,18.36,2.93,36.72,4.46,55.94a15.24,15.24,0,0,0,.82-1.8c2.84-15.43,1.65-30.89.37-46.35-.42-5.15-1.8-10.53,4.52-13.47a5.59,5.59,0,0,0,2.25-2.6,14.77,14.77,0,0,0,.81-3.5,12.29,12.29,0,0,0-3.54.06c-4.36,1.39-7.74-.91-6.18-4.81.94-2.37,3.85-4.65,6.37-5.46,2-.65,5.76.18,7,1.74,6.54,8.3,12.6,17,18.65,25.68.9,1.29.93,3.19,1.36,4.8l-1.41.4-2-3.88-21.43,21.43c.5.75,1,1.49,1.51,2.23l10.26-3.9.88,3.1,15.25-13.18,1.9,1.07c-.54,1.88-.74,4-1.71,5.59-1.69,2.81-3.91,5.3-5.8,8-4.84,6.91-7.37,15.58-15.07,20.31-6.06,3.73-12.26,7.26-18.47,10.74-9.69,5.43-19.7,10.33-29.08,16.24a95.29,95.29,0,0,0-16.29,13.61c-2.08,2.09-2.51,5.83-4.06,9.75l59.42-30.15a161,161,0,0,1-15.46,16.36c-3.87,3.45-9,5.49-12.73,9.05a18.23,18.23,0,0,1-12.3,5.4,51.11,51.11,0,0,0-33.92,15.2c-4.46,4.42-8.71,9.27-9.37,17.4,11.76-11.37,25.22-16.48,39.88-20.12-.79,3.93-.91,7.39-2.28,10.25-.89,1.87-3.41,3.31-5.52,4.2-4.32,1.82-9.28,2.45-13.21,4.83-5.82,3.52-11.31,7.36-18.61,7.87,6.16,5.66,13.08,3.64,20.11,1.9-3.1,2.53-6.45,4.61-9.5,7.06a73.29,73.29,0,0,0-8.77,8.11c-2.94,3.3-6.14,6.71-7.91,10.66-3.37,7.52.27,16.66,6.66,18.39a7.14,7.14,0,0,0,.89-2.26c.18-7.74,3.73-14.13,8.48-19.78,7.46-8.85,15.33-17.35,22.93-26.08,3.25-3.73,7.88-7.24,9-11.59,1.49-5.83,5.4-8.62,9.06-12.29,10.93-10.95,22.42-21.47,32.13-33.42,7-8.61,11.7-19.13,17-29,4.63-8.59,12.79-13.39,19.73-20.83,1.36,4.4,2.36,7.69,3.4,11,.95,3,1.95,6,3.1,9.5,2.48-7.27.15-13.61-1.59-19.85-1.06-3.8.16-5.45,4-6.9.38,3.51,2.93,6,.5,9.76-1.24,1.93-.22,5.33-.22,9.42l4-5.18c4.61,6.33,4.38,8.17-.83,12.57-6.43,5.43-12.83,10.89-19,16.57-1.29,1.18-1.64,3.39-2.43,5.14,9.75-4.45,18.82-8.6,28.33-12.93.41,2.78.69,4.68.86,5.81-2.26,1.8-4.18,3.09-5.83,4.66-4.86,4.62-9.46,9.34-15.91,12.13s-12.26,7-18.5,10.33c-14,7.42-27,15.63-29.09,33.36-.38,3.22-2.22,4.43-5.13,5.06A54.48,54.48,0,0,0,204.24,504c-5.93,5.8-11.68,11.67-15.79,18.93a53.62,53.62,0,0,0-2.58,6.25l1.19.69c10.14-9.07,22.11-13.45,35.41-15.31,7.14-1,14.06-3.68,21-5.87,1.44-.45,2.5-2.12,3.74-3.23l-.88-2.24c-11.08,5.15-22.51,2.49-34,2.66a20.42,20.42,0,0,1,6.86-3.51c9.61-2.54,19.62-3.94,27.81-10.26,3.08-2.38,6.52-4.57,6.68-9.09l-14.31,4.64-1-1.47c1.62-2.81,2.91-5.87,4.9-8.38,7.68-9.66,18.19-15.31,29.44-19.65,11.44-4.42,21.84-10.33,30.28-19.39a19.44,19.44,0,0,1,2.51-1.93c0,5.08.23,9.7-.11,14.28-.16,2.17-.82,5.12-2.33,6.2-3.79,2.7-8,5.4-12.39,6.53-9.3,2.38-14.32,9.78-20.42,15.9-1.62,1.63-2,4.54-2.89,6.85l1.08.77c9-10.76,21.62-15.11,34.36-20.64v7.31c1.54-2.46,2.89-3.73,3.12-5.18.64-4.14,4.08-5.66,6.61-8.17A142.9,142.9,0,0,0,324.63,447c1.17-1.5.93-4.08,1.33-6.17-5.17,4.88-8.55,10.92-16.12,12.73,0-6.9-.2-13.46.09-20A22.93,22.93,0,0,1,312,426c2.24-5.36,5.2-10.45,7-15.93,2.15-6.44,4.37-13.17-.34-20.93-.64,2.89-1.05,4.78-1.37,6.23l-9,6.46c-5.09-6.55-5.58-11.67-1.25-15.38a49.93,49.93,0,0,1,10.21-6.93c6.62-3.3,13.51-6.05,20.75-9.22,1.94,4.67,4.06,9.79,6.19,14.9l1.82-.36c-.61-3.67-.79-7.48-1.95-11-1.21-3.67-.62-6.57,1.18-9.83,2.21-4,4.47-8.23,5.57-12.64,3.25-13.12,6.62-26.17,15-37.12,3.36-4.38,7.57-8.12,11.39-12.15l1.12,1c-.29,1.09-.55,2.19-.88,3.27-2.67,8.86-5.68,17.64-7.9,26.62-1,4.08.48,8.85-.79,12.78-2.85,8.81-6.65,17.31-10.18,25.89-6.84,16.62-14.13,33.17-14.83,51.44-.2,5.11,2.23,10.32,3.45,15.5-1,2.85-1.93,5.69-3.16,9.29a23.38,23.38,0,0,0,4.75-.76,54,54,0,0,0,24.8-19.24c.54-.75,1.29-1.67,2.08-1.83,3.66-.75,7.37-1.26,11.19-1.87-8.77,17.73-20.66,33.3-35,47.54,3.48.07,6.6-.27,9.15-1.66a88.93,88.93,0,0,0,11.59-7.79,58.46,58.46,0,0,0,21.63-33.51c2.21-9.08,6-17.78,9.28-26.58,1.91-5.11,4.74-9.92,6.25-15.13,3.38-11.63,6.07-23.46,9.31-35.13,1.17-4.2,3.1-8.19,4.68-12.28l-1-.78a41.8,41.8,0,0,0-3.62,2.68c-8.39,7.7-11.83,18.28-16.19,28.28-4.85,11.11-9,22.52-14.11,33.53-2.54,5.51-5.37,11.32-11.82,14.11-.94-2.94-1.73-5.39-2.22-6.91-7.83,9.06-15.4,18-23.18,26.66-.92,1-3,1-4.54,1.5-.06-2.61-.18-5.22-.16-7.84.08-12,5-22.57,10.44-32.91,6.75-12.77,13.29-25.42,14.77-40.32.9-9.08,4.44-17.88,6.59-26.85,1.58-6.55,2.84-13.18,4.21-19.79.21-1,.23-2.1.34-3.15,1.74,6.14,2.31,12.39,3.59,18.48,2,9.53,15,15.71,23.12,8.16l-13.86-8.68.82-1.19c11.45,1.41,22.63,0,33.81-3.05a61.91,61.91,0,0,0-16.58-3.56c-13-1-22.05-11.05-21.27-24,.1-1.71-.71-3.46-1-5.2-.41-2.41-1.53-5-.95-7.19,1.56-5.76,1.4-11-1.75-16-4.71-.29-9.62,4.89-13.72-1.11L386,260.12c-4.91-2.48-8.49-4.4-12.16-6.11-4.65-2.15-9.7-3.59-14-6.27-11.17-6.94-14.55-19.39-20.28-30.31a15.57,15.57,0,0,1,5.95,4c4.68,5.77,9.06,11.78,13.6,17.67,3.6,4.66,7.71,6,12.4,4.46-1.33-4.78-2.78-9.49-3.87-14.28-.26-1.14.29-3.33,1.08-3.69,4.78-2.18,3.18-4.81,1.06-7.84-1.58-2.28-2.85-4.78-4.15-7l7.22-1.23,1.1-2.38-10.39-7.07,5-2.59c-1.77-2.07-3.45-3.91-5-5.87-4.11-5.31-3.41-7,3.14-8.1,1-.15,1.93-.38,3-.59-2.54-3.39-5.79-6.33-7.28-10-4-9.75-4.28-20.16-2-30.28,2-8.89,3.61-17.79,1.77-26.65-3.54-17.06-7.31-34.11-12.12-50.85-1.74-6.09-.36-10.53,2.1-15.4a36.14,36.14,0,0,1,2.35-3.58,5.7,5.7,0,0,0-4.84.87c-8.39,7-17,13.81-24.92,21.27-7.57,7.08-14.6,14.76-21.66,22.36-8.69,9.36-16.72,19.38-25.91,28.21-5.1,4.89-10.3,10.5-19.21,9.61-12-1.2-24.19-.93-36.28-1.57-7.12-.38-14.06-1.33-20-6.27-2.56-2.12-6.34-3.91-9.55-3.9-8.75.06-13.61-5.66-19.15-10.86-17.27-16.2-33.45-33.16-44.12-54.76-2.86-5.79-7.6-10.67-11.67-15.82-1.78-2.25-5.33-3.83-5.87-6.21C109.74,22,104.68,18.37,98.9,14.73a19.45,19.45,0,0,0,1.69,7c2.75,6.3,5,12.44,2.69,19.64a42.71,42.71,0,0,0-2.07,14.24c.51,19.6,1.34,39.19,2.32,58.77.62,12.48.61,24.77-2.17,37.12-1.65,7.34-1.82,15.18-1.44,22.73a18.07,18.07,0,0,1-3.27,11.92c-8,12.09-15.31,24.56-11.25,40.4-4.58.67-5.28,4-5.54,8s-.53,8.24-1.89,12c-1.79,4.91-1.69,6.45,3.62,9-2.71,4.46-5.6,8.77-8,13.32-2.69,5-6.89,6.75-12.24,8.09-13.2,3.3-26.2,7.43-39.22,11.41-2.47.75-4.69,2.34-7,3.54l.38.38,51.86-12.9c.82,3.3,1,5.87,2.08,8,1.62,3.17.4,4.81-2.38,5.65-6,1.82-11.93,3.65-18,5-6.53,1.47-13.19,2.41-19.79,3.59,6.45,3.63,12.73,1.08,18.94.18,6.47-.94,12.84-2.58,19.65-4,1,5.34,1.94,10.05,2.55,14.81A5.32,5.32,0,0,1,69,316.57c-11.22,10.78-20.25,23.28-28.54,36.35a47.41,47.41,0,0,0-2.91,6.44c3.92-3.67,6.46-8.1,9.67-12,8-9.71,16.18-19.22,24.47-28.66,1.07-1.22,3.15-1.54,4.76-2.28-5.09,12.76-5.09,12.76-4,17.05,7.42-2.75,19.46-21.06,16.6-25.09l-4.85-1.59c5.27-3.75,9.67-7,14.16-10.05,2.14-1.47,3.75-2.06,5.19,1.43s4.18,6.25,6.3,9.27c-4.19,6.2-8.4,12.54-12.76,18.78a8.39,8.39,0,0,1-3.28,2.3c-1.52.72-3.77.66-4.67,1.78-3.75,4.63-7.15,9.55-10.55,14.45-.53.76-.37,2-.66,3.88L86,344.47c-8,16.85-15.13,33-14.16,51.34,3.72-11.62,5.37-23.93,12.18-34.55l2.87,5.33,7.64-6.07c.34,4.5.64,8.32,1,12.86l8.88-8,.72.94-8.76,15.89,1.14,1.32L121,372c-4.17,13.35-16,19.5-23.58,29.21-1.46,1.89-2.2,4.36-3.27,6.56,2.56.29,5.27,1.25,7.63.71s4.59-2.58,6.86-4c1.5-.91,3-1.84,5.08-3.14.31,11.78-2.74,21.23-13.2,29.12l12.92,5.06-5.3,4.3c6.6,9.93,16.26,12.21,27.63,12.21l-12.42,21.64c1.5-.3,2.27-.53,3.06-.61,3-.31,6.06-.57,9.09-.84-.72,3.61-1,7.4-2.26,10.8-2.5,6.55-5.58,12.87-8.43,19.29l1.39,1.5c3.18-1.75,7.09-2.84,9.39-5.38,6.93-7.66,12.24-16,9.67-27.43-1.59-7.07,2-11.08,9.27-12.35a26.79,26.79,0,0,0,2.9-.74c14.65-4.34,26.34-13.1,36.11-24.56,5-5.85,10.18-11.31,17.18-14.87a63.17,63.17,0,0,0,10.77-7c1.44-1.15,1.91-3.51,2.73-5.12-5.5,2.26-10.53,4.18-15.44,6.37-5.77,2.58-11.44,5.4-17.16,8.11a72.8,72.8,0,0,0-7.57,3.57c-5.25,3.26-10.44,6.64-15.41,10.31-1.11.82-1.19,3-2.06,5.5L194,426.74c-4.35,6.84-10.75,10.77-17.56,14.06-8.83,4.25-18.91,6.13-25.68,14.28-1.24,1.5-4.07,1.68-6.16,2.47l-1.24-1.6c2.61-4.21,5.21-8.41,8-12.87-2.44-.32-4.73-.73-7-.9-6.33-.49-9.14-4-7.17-10.06,1.33-4.06,3.72-7.76,5.59-11.64,1.55-3.19,3-6.41,4.84-10.24L133,412.16c-1-6.39.11-11.65,4.33-16.09,3.65-3.84,7.3-7.68,10.84-11.61,1.72-1.91,3.31-4-.14-6.11l-16.57,9.78-.83-1.14c.86-1.38,1.62-2.83,2.59-4.12,5.17-6.88,10.53-13.62,15.49-20.64,1.38-2,1.63-4.71,2.4-7.09l-1.55-.53c-6.87,11.08-15.56,20.27-26.88,26.73l-1.36-.73,8.77-19.1-14.85,2.88-1.42-1.7c2-3.35,3.86-6.73,5.88-10,3.42-5.59,7.21-11,10.2-16.79,1-1.95,0-4.91,0-7.4A44.2,44.2,0,0,1,111.61,348c-.74-4.88-1.39-9.13-2-13.38l-1.5-.53-11,11.85L95.32,345c1.85-5.44,3.19-11.12,5.69-16.24,2.14-4.4,5.47-8.26,8.49-12.19,5.61-7.3,5.65-7.19,14.39-4.2,1.57.54,3.43.28,5.15.38l.5-1.55c-1.27-1.21-2.48-2.51-3.83-3.61-5-4.09-5-6.2.3-10.09,1.19-.88,2.72-1.3,3.92-2.17,1.5-1.09,2.81-2.43,4.21-3.67l-.93-1.54c-6.69-1.27-10.17,5.06-15.44,8.14-1.2-3.73-5.38-7.65-.59-10.23,4.29-2.32,9.41-5.78,15.08-1.71.88.63,3.32-.62,4.88-1.35a2.6,2.6,0,0,0,1.15-2.26,2.69,2.69,0,0,0-2-1.57,134.4,134.4,0,0,0-15.56.51c-3.4.42-6.61,2.17-10,3a44.74,44.74,0,0,1-6.68.7l-.42-1.92c2.64-1.16,5.18-2.85,7.94-3.37,7.93-1.49,16-2.37,23.93-3.81,1.6-.28,2.95-1.93,4.42-3-1.28-.91-2.53-1.85-3.84-2.71a15.67,15.67,0,0,0-2.47-.87l7.15-5.1c-3.09-2.21-5.48-4.84-8.4-5.73-2.16-.65-5.07.81-7.51,1.68-.65.24-.83,1.79-1.23,2.74,1.77.57,3.54,1.12,5.29,1.71a15.15,15.15,0,0,1,1.65.84l-6.82,6.79h-29c2.77-5.18,5-9.23,7.15-13.36,2.75-5.38,6.83-6.88,12.8-5.82,4,.7,8.27-.14,12.39-.57.91-.1,1.7-1.36,2.55-2.09a36.31,36.31,0,0,0-10.54-1.69c-5.42-.28-11.14-1.15-15.94,1.73A35,35,0,0,0,88.4,268.51c-.54,1.37-.88,3.37-1.91,3.9a22.16,22.16,0,0,1-6.94,1.77,4.57,4.57,0,0,1-1.14-3.11c2.3-7.61,2.85-15.93,10-21.5,6-4.76,11.67-9.88,20-9.83a58.85,58.85,0,0,0,7.2-.85c-4-5.59-9.83-6.11-15.09-5.22s-9.87,3.77-15.22,6c.42-6.37,3.81-10.13,8.64-12.35,6.44-2.95,9.14-7.86,10.31-14.6.68-3.91,2.79-7.75,5-11.14,1-1.48,3.76-1.77,5.72-2.6-5,11.26-4.83,18.85,1.59,25.43,5.56,5.7,13,8,20.87,9.57a20.21,20.21,0,0,0-7.14-6.31c-10.74-5.1-14.17-13.61-9.41-24.45,1.44-3.3,3-6.52,4.85-10.4-16.69-7-23.44,5.05-31.24,16.68-.07-17.16,8.46-25.84,22.72-28.45l8.5,2.93c-1.08-4.45-3-7.94-2.48-11,1.78-10.21,19-19.58,30.46-16.47-2,1.39-3.48,2.55-5.09,3.52-5.74,3.43-9.07,10.33-7.26,16.07.35,1.12,2.39,1.72,3.65,2.55,3.06-6.12,10.21-10.14,9-18.55-.29-2.06,1.23-4.55,2.36-6.6s3.07-4,4.35-6.19c1.76-3,2.65-6.68,4.94-9.08,5.44-5.69,11.44-10.85,17.32-16.1a3.93,3.93,0,0,1,3.26-.78,145.67,145.67,0,0,1,15,6c.87.41,1.3,3.49.72,4.79-1.82,4.12-4.37,7.92-2.26,12.74a3.09,3.09,0,0,1-.47,2.36c-3.74,6.17-7.57,12.29-11.94,19.35-.23-3.32.19-5.83-.65-7.8-2.18-5.14.16-8.31,3.51-11.82a47.58,47.58,0,0,0,7.76-10.86c1.09-2.09,1-5.19.36-7.56-.2-.75-3.83-1-5.81-.81-9.33,1.07-15.16,7.41-20.18,14.46a11.39,11.39,0,0,0-2,7.77c.35,1.9,3.27,3.32,5,4.92-1.26,1.43-2.57,3.49-4.39,4.83-4.38,3.23-9.06,6.05-13.52,9.17-3.76,2.63-5.74,6.6-4.38,10.86,1.41,4.42,3.28,9.44,6.58,12.35,6.47,5.72,12.6,10.93,9.84,21.4,5.78-4.87,6.41-12.34,2.11-17.3-2.88-3.33-5.92-6.53-9.2-10.11,3-5.32,6.13-10.22,8.59-15.44,2.33-5,4-10.23,5.9-15.36L179,156c-1.18,3.25-2.35,6.5-3.54,9.75-2.38,6.5.07,16,5.42,18,4.92,1.79,7.47,4.54,7.32,10.53,2.29-.92,4.58-1.15,5.68-2.41,3.33-3.82,6.81-3.78,11.19-2.06,5.49,2.15,10.27-.06,12.38-5.61a37.15,37.15,0,0,0,1.86-9.17c1.44-13.39.17-13,12.84-14.87.25,0,.54.19,1.08.41-4.54,5.56-10.2,10.54-9.69,18.55a88.07,88.07,0,0,0,1.21,9.72c.58,3.26-.34,4.84-3.86,5.35-10.08,1.45-17.58,12-15.71,21.83.27,1.43,1.41,2.7,2.79,5.24,2.36-11.06,6.8-19.2,16.6-24.27l1.89,5.91c4.63-.9,8.82-3,10.18-7.62,2.12-7.25,3.51-14.73,4.9-22.17.79-4.29,1.77-8.28,6.13-11.71,9.22,9.49,6.13,19.34,1.63,29.56a101.16,101.16,0,0,0,15.47-6.35c1.41-.74,2.27-3.06,2.65-4.82.1-.47-2.5-1.54-3.88-2.3-.87-.47-1.84-.79-2.68-1.31-3.57-2.19-4.23-5.56-2.79-9.08,1.67-4.07,4.91-1.86,7.2-.77a15.68,15.68,0,0,1,5.06,4.53c2.27,2.85,4.14,6,6.36,8.91.66.87,1.92,1.28,2.91,1.9l.94-1.1c-.81-1.16-1.65-2.3-2.41-3.5a48.74,48.74,0,0,1-2.5-4.31c-2-4.06-1.06-8.51,2.38-9.81,4.54-1.71,6.73-4.62,5.93-10.73,5.66-.44,11-1.18,16.34-1.2,11,0,21.91.38,32.87.43,1.51,0,3-1,5.21-1.73L310.06,145l.06-1.33c.88-.25,1.76-.51,2.64-.73,6-1.49,11.95-2.84,17.85-4.52,1.32-.38,2.31-1.9,3.27-2.74l-25.48-1.36c0-.65-.07-1.3-.1-2,1.63-.49,3.26-1,4.9-1.46,6.24-1.71,12.54-3.21,18.69-5.19,2.06-.66,3.74-2.51,5.59-3.82l-.86-1.46-40.18,4c5.06-5.1,10.84-7.6,17.25-9.16q11.85-2.86,23.54-6.38c1.33-.4,2.18-2.37,2.95-3.26L314.27,109c6.29-13.37,6.29-13.37,3.44-16.44a8.79,8.79,0,0,0-.57.79,72.57,72.57,0,0,1-17.7,20.75c-6.59,5.2-11.91,12.08-17.37,18.57-1.62,1.91-1.81,5-2.95,8.48l13.75-5.21,1,1.4c-3.67,3.46-7.1,7.27-11.15,10.22-1.69,1.23-4.91,1.32-7.08.68-3.06-.9-3.51-4-2.34-6.64,2-4.67,4-9.5,6.91-13.65C285,121,290.47,114.6,295.74,108c10.91-13.59,22-27,36.45-37.13,5.91-4.14,12.82-1.75,14.56,5.24,2.33,9.35,4.12,18.83,6.21,28.23,4.71,21.17,2.12,41.23-8.88,60.09-1.12,1.92-1.7,4.16-3,7.41l6-3.1a50.62,50.62,0,0,1-6.92,12.1c-4,5.54-4.72,8.41-3.23,11.38l14.49-14.07c-.23,6.93.55,12.12-6.93,14.34-5.5,1.63-10.35,5.47-16.12,8.68-6-3-.88-11.4-6-15.92L320,189.47c-2.1-5.95-.75-8.81,4.55-10.64,3-1,5.89-2.27,8.83-3.41l-.61-.93-13.56-2c0-.56.09-1.12.13-1.68,3.53-.56,7.09-.94,10.57-1.73,7.86-1.79,7.84-1.87,7.72-5.61H320.46c12.55-4.23,12.55-4.23,13-7.73-3.06.36-6.14,1.13-9.18,1-5.46-.23-10.89-1.51-16.32-1.43-8.73.14-17.4,1.14-23.64,8.49a5.62,5.62,0,0,0-.58,1.43l4.4.21c-.22,1.93-.4,3.45-.56,4.87,6.38,2,13.08-4.24,18.59,1.64-1.18,2.61-2.35,5.18-3.72,8.19l8.05,1.56c1.57,4.2,3.17,8,4.34,11.91.41,1.37-.21,3-.36,4.58-1.88-.29-4.08-.07-5.57-1-1.76-1.09-2.72-3.36-4.33-4.77-4.18-3.67-8.41-7.43-14.91-7.23,3.28,4.44,6.51,8.06,8.84,12.2s3.47,8.95,5.69,13.18c2.36,4.5,3.27,10.06,8.27,13.27,3.69-17.08-.21-15.7,16.76-14.52.16,0,.4-.09.49,0,2.45,2.31,6.62,4.36,7,7,2.54,15.78,8.83,29.41,20.2,40.72,1.26,1.26,1.71,3.32,2.65,4.93,1.22,2.11,2.12,4.74,3.94,6.11,3.86,2.9,8.23,5.14,13,8l-17.12,12.1c3.06,1.09,4.73,2,6.49,2.23,1.94.24,3.95-.19,7.2-.43-8.69,8.18-17.44,9.45-28.72,5.42,2.24,3.32,3.34,5.74,5.12,7.44,5,4.75,5.16,4.8-.12,9.43a17.24,17.24,0,0,1-5.82,3.72c-6.7,2.07-13.52,3.71-20.85,5.67,3.79,5.39,10.09,4.11,16.2,5.25-1.31,2.72-2.3,5.3-3.71,7.63-4.94,8.16-7,8.5-14.14,2.72-.52-.42-1.1-.75-1.62-1.17l-18-14.47c1.93-8.4,6.63-11.52,14.41-11.8,3.11-.12,6.64-2.87,9-5.33,4.53-4.64,3.87-10.57,2.79-16.89L342.13,298c3.21-5.11-1.8-8.7-2.17-13.24l9.23,1.39c-2.77-4.6-4.82-8-6.62-10.95l2.33-3a16.34,16.34,0,0,0-3-2.15c-3.54-1.52-7.23-2.39-10.12-5.48-4.36-4.69-9.31-8.85-14-13.23l-1.52.58c.72,2.61.89,5.58,2.29,7.75,2.23,3.44,5.51,6.18,7.89,9.54a10.14,10.14,0,0,1,1.8,6.15c-.11,1.38-3,3.85-3.19,3.72-3.9-2.69-8.76-5-11-8.79-2.82-4.73-3.45-10.75-5.07-16.35,2.7-1.13,3.2-3.55-.24-5.94-5.57-3.89-8.8-8.49-10-15.63-1.59-9.8-8.87-16.44-16.71-15.61-9.6,1-17.34-3.39-23.5-8.68-9.14-7.85-26.78-4.29-33.28,3.15-5.1,5.82-10.18,12-13.68,18.82-5.63,11-2.36,24.13,10.31,26.74-.48-7.19-4-14.39-.28-21.63,10.51,4.45,10.51,4.45,13.87,1.36-7.77-2.55-10.18-5.54-9.48-11.8.89-8,5.11-12.75,12.78-13.42-1.65.92-3.13,1.24-3.43,2-1,2.54-2.59,5.5-2,7.84.69,2.93,3.28,5.42,5.14,8.22,6.75-2.59,8.62-9.11,5-18.92,5-1.13,13.64,1.94,15.45,5.51,2.35,4.65-1.82,13.17-9.34,18.9,4.16,1.24,7-1,9.2-3.68,2.45-3,3.91-6.9,6.34-10,1.34-1.68,3.81-2.45,5.76-3.63.74,1.83,2.17,3.69,2.09,5.48-.39,8.81-5.34,15.25-12.1,20.19-3.18,2.32-7.2,4.72-10.9,4.83-6,.18-11.07,2.14-16.16,4.51-2.21,1-3.1,2.59-.92,5.46a74.3,74.3,0,0,1,8.73,15c1.7,3.87,3.48,5.35,7.94,5.26,12-.23,21.76,3.86,26.37,16.08.1.29.48.47.89.86,1-13.14-6.31-21.23-19-22a11.4,11.4,0,0,1-6.09-2.67c-5.62-4.61-11-9.52-16.8-14.64,1.58-.81,3.49-2.41,5.59-2.74a61.31,61.31,0,0,1,11.81-.6c13.76.55,23.65-12.15,23.54-23.63,0-2.35.55-4.71,1-7.91,8.18,5.09,12.19,12,15.75,20l-11.65,2.59c4.34,7.9,3.68,9.5-4.13,12-2.69.87-5.57,1.29-8.08,2.5-4,1.91-8.6,3.36-9.79,8.43,6.84-1.07,13.33-1.84,19.71-3.16,4.32-.9,8.41-3.11,12.74-3.71,2.73-.38,6.51.26,8.42,2,3.24,2.9,5.46,7,7.94,10.68,1.41,2.1,2,5,3.85,6.53,4.5,3.68,6.29,8.3,5.26,13.66-1,5-5.17,7.6-9.82,8.8-7.14,1.85-14.39,3.27-21.66,4.88l4.3,5.05-.78,1.35c-13.06-5.73-25.67-13.12-41.49-12.35l2.44,1.24-.43.8-5.56-3-4.24,2.5,22.82,12.84c-9.13,5.32-13,4.83-20.14-1.69-1.75-1.62-3.33-4.1-6.45-.81l13.35,14.87c-5.88,6.17-8,6.37-9.81,1.4q-4.44-12.39-8.85-24.8c-1.18-3.34-9.63-9-13-9.54-4.1-.64-8.07-2.1-12.09-3.21l.64-2.64c10.18,1,19.89,4.92,30.19,6.82-.55-2.21-1.59-4.75-2.51-4.7-6.07.27-8-10.79-15.62-5.67-.08.06-.6-.83-1-1-1.63-.54-3.3-1-5-1.42-2.15-.57-4.32-1.1-6.48-1.65,9.52-3.58,18,.3,27.06,2.79,0-5.09-1.73-7.18-5.9-7.29-1.9-.06-4.47-.06-5.53-1.2-2.29-2.46-3.52-3.39-5.87-3.25-5.48.34-11.52-.61-12.58,7.32-.06.42-1.19.61-1.6,1.1-1.71,2.05-3,4.21-.07,6.31,2.15,1.56,2.21,3,.22,4.82-.85.78-1.19,2.13-2.22,4.12,4,1,7.37,1.69,10.59,2.77,4.32,1.45,8.9,2.65,12.69,5,3.4,2.14,5.29,6,5.16,12a51.5,51.5,0,0,1-4.54-4.45c-1.62-2.11-3-4.41-4.5-6.6-2.47-3.57-5.6-4.8-9.68-2.78l10.56,14.42c-8.14,2.58-21.56.65-26.49-2.71-5.9-4-12.08-7.66-18.22-11.32-.63-.38-1.83.18-2.77.31a14.43,14.43,0,0,1-.92-3.17c-.29-5.71-2.31-12.29-.18-16.92,2.3-5,8.42-8.31,13.1-12.07,3.37-2.71,7.53-4.55,10.56-7.55,2.19-2.18,3.43-5.52,4.5-8.55,1.25-3.58,3.82-8.72,2.38-10.84-4-5.85-8.36-12.09-16.09-14-2.52-.63-5-1.81-7.5-2.11-3.46-.4-7.26-1.85-11.08,1.72,2.34.22,3.82.34,5.29.51,8.8,1,16.22,4.56,21.52,11.92,4.34,6,3.06,15.86-2.4,17.9-3.39-5.26-7.62-7.48-14.31-5.9-4,.94-8.57-.21-12.76-1.05s-8-2.86-11.24,1.56c-.15.2-1.15-.22-1.76-.35a36.83,36.83,0,0,0,1.34-4.09c1.72-8.3,1.14-16.82,5.77-24.82,6.74-11.65,3.83-22.82-6.36-31.61-6.61-5.7-19.33-6.17-23.67-1.77a51.38,51.38,0,0,1,.66,6.84c-.12,2.81-.76,5.6-1,8.42-.55,7.75,2.14,14.07,8.87,18.24,1.4.86,3.36.81,5.07,1.18-9.89-7.37-12.94-17.63-7.31-26.31a8.43,8.43,0,0,1,11.8-2c-6.29,3.52-6.73,5-3.63,11.68.34.74.4,1.62.78,2.33.63,1.21,1.42,2.34,2.14,3.5,1.13-.84,2.74-1.45,3.28-2.57,1.73-3.55,3.07-7.3,4.54-10.94,3.93,3.54,4.37,5.25,4.2,10.27-.25,7.63-6,12.23-9.39,18.15-2.1,3.69-4.23,7.37-6.34,11.06l1.35.91,5.55-2.28Z" transform="translate(-1 -1.02)"/><path d="M347.25,438.62c-1.23-5.16-3.66-10.37-3.46-15.48.7-18.27,8-34.82,14.83-51.44,3.53-8.58,7.33-17.08,10.18-25.89,1.27-3.93-.22-8.7.79-12.78,2.22-9,5.23-17.76,7.9-26.62.33-1.08.59-2.18.88-3.27l-1.12-1c-3.82,4-8,7.77-11.39,12.15-8.39,10.95-11.76,24-15,37.12-1.1,4.41-3.36,8.61-5.57,12.64-1.8,3.26-2.39,6.16-1.18,9.83,1.16,3.49,1.34,7.3,1.95,11l-1.82.36C342.1,380.13,340,375,338,370.34c-7.24,3.17-14.13,5.92-20.75,9.22a49.93,49.93,0,0,0-10.21,6.93c-4.33,3.71-3.84,8.83,1.25,15.38l9-6.46c.32-1.45.73-3.34,1.37-6.23,4.71,7.76,2.49,14.49.34,20.93-1.83,5.48-4.79,10.57-7,15.93a22.93,22.93,0,0,0-2.07,7.54c-.29,6.55-.09,13.11-.09,20,7.57-1.81,11-7.85,16.12-12.73-.4,2.09-.16,4.67-1.33,6.17a142.9,142.9,0,0,1-12.09,13.69c-2.53,2.51-6,4-6.61,8.17-.23,1.45-1.58,2.72-3.12,5.18v-7.31c-12.74,5.53-25.36,9.88-34.36,20.64l-1.08-.77c.93-2.31,1.27-5.22,2.89-6.85,6.1-6.12,11.12-13.52,20.42-15.9,4.42-1.13,8.6-3.83,12.39-6.53,1.51-1.08,2.17-4,2.33-6.2.34-4.58.11-9.2.11-14.28A19.44,19.44,0,0,0,303,438.8c-8.44,9.06-18.84,15-30.28,19.39-11.25,4.34-21.76,10-29.44,19.65-2,2.51-3.28,5.57-4.9,8.38l1,1.47,14.31-4.64c-.16,4.52-3.6,6.71-6.68,9.09-8.19,6.32-18.2,7.72-27.81,10.26a20.42,20.42,0,0,0-6.86,3.51c11.47-.17,22.9,2.49,34-2.66l.88,2.24c-1.24,1.11-2.3,2.78-3.74,3.23-6.93,2.19-13.85,4.87-21,5.87-13.3,1.86-25.27,6.24-35.41,15.31l-1.19-.69a53.62,53.62,0,0,1,2.58-6.25c4.11-7.26,9.86-13.13,15.79-18.93a54.48,54.48,0,0,1,27.23-14.78c2.91-.63,4.75-1.84,5.13-5.06,2.08-17.73,15.09-25.94,29.09-33.36,6.24-3.3,12.05-7.53,18.5-10.33s11.05-7.51,15.91-12.13c1.65-1.57,3.57-2.86,5.83-4.66-.17-1.13-.45-3-.86-5.81-9.51,4.33-18.58,8.48-28.33,12.93.79-1.75,1.14-4,2.43-5.14,6.2-5.68,12.6-11.14,19-16.57,5.21-4.4,5.44-6.24.83-12.57l-4,5.18c0-4.09-1-7.49.22-9.42,2.43-3.79-.12-6.25-.5-9.76-3.81,1.45-5,3.1-4,6.9,1.74,6.24,4.07,12.58,1.59,19.85-1.15-3.52-2.15-6.5-3.1-9.5-1-3.28-2-6.57-3.4-11-6.94,7.44-15.1,12.24-19.73,20.83-5.32,9.88-10,20.4-17,29-9.71,11.95-21.2,22.47-32.13,33.42-3.66,3.67-7.57,6.46-9.06,12.29-1.12,4.35-5.75,7.86-9,11.59-7.6,8.73-15.47,17.23-22.93,26.08-4.75,5.65-8.3,12-8.48,19.78a7.14,7.14,0,0,1-.89,2.26c-6.39-1.73-10-10.87-6.66-18.39,1.77-4,5-7.36,7.91-10.66a73.29,73.29,0,0,1,8.77-8.11c3.05-2.45,6.4-4.53,9.5-7.06-7,1.74-13.95,3.76-20.11-1.9,7.3-.51,12.79-4.35,18.61-7.87,3.93-2.38,8.89-3,13.21-4.83,2.11-.89,4.63-2.33,5.52-4.2,1.37-2.86,1.49-6.32,2.28-10.25-14.66,3.64-28.12,8.75-39.88,20.12.66-8.13,4.91-13,9.37-17.4A51.11,51.11,0,0,1,209,458.34a18.23,18.23,0,0,0,12.3-5.4c3.71-3.56,8.86-5.6,12.73-9.05a161,161,0,0,0,15.46-16.36l-59.42,30.15c1.55-3.92,2-7.66,4.06-9.75a95.29,95.29,0,0,1,16.29-13.61c9.38-5.91,19.39-10.81,29.08-16.24,6.21-3.48,12.41-7,18.47-10.74,7.7-4.73,10.23-13.4,15.07-20.31,1.89-2.7,4.11-5.19,5.8-8,1-1.62,1.17-3.71,1.71-5.59l-1.9-1.07-15.25,13.18-.88-3.1-10.26,3.9c-.5-.74-1-1.48-1.51-2.23l21.43-21.43,2,3.88,1.41-.4c-.43-1.61-.46-3.51-1.36-4.8-6-8.68-12.11-17.38-18.65-25.68-1.23-1.56-5-2.39-7-1.74-2.52.81-5.43,3.09-6.37,5.46-1.56,3.9,1.82,6.2,6.18,4.81a12.29,12.29,0,0,1,3.54-.06,14.77,14.77,0,0,1-.81,3.5,5.59,5.59,0,0,1-2.25,2.6c-6.32,2.94-4.94,8.32-4.52,13.47,1.28,15.46,2.47,30.92-.37,46.35a15.24,15.24,0,0,1-.82,1.8c-1.53-19.22-3-37.58-4.46-55.94l-2.19-.21a45.09,45.09,0,0,0-1.62,6.45c-.82,7.59-1.33,15.21-2.19,22.8a12,12,0,0,1-2.74,6.07V358.48c-3.68,2.69-7.89,4.12-8.62,6.58-2.9,9.8-10.5,16.31-15.44,24.56-4.37,7.31-9.83,12.59-17.28,16.13-1.11.53-2.58.32-3.88.45a20.23,20.23,0,0,1,2.23-3.5,89,89,0,0,0,7.51-8.14c-3.6-.45-7.4,3.49-10.06-2.09,9-7.07,18.58-13.91,24.12-24.51l-.76-1.53L184.72,376c-.4-.44-.81-.87-1.22-1.31,1.93-2.27,3.43-5.34,5.87-6.68,11.32-6.22,22.93-11.9,34.36-17.91,2-1,3.63-2.75,5.43-4.15l-.92-1.43a5.52,5.52,0,0,0-1.82-.18c-10.4,2.82-20.72,5.95-31.2,8.39-3.71.86-7.86.4-11.73-.1-4.67-.61-9.24-2-13.89-2.89-8.61-1.61-17.21-3.89-22.75-11S136.13,324,136.09,314.21c0-2.7-1.16-5.4-1.82-8.1-.3-1.25-.68-2.49-1.19-4.33,1.44.32,2,.27,2.29.54,5.36,5.07,7.92,5.6,14.47,2.09s13.37-4.76,20.65-2.75l1.5.41c.94-.13,2.14-.69,2.77-.31,6.14,3.66,12.32,7.29,18.22,11.32,4.93,3.36,18.35,5.29,26.49,2.71l-10.56-14.42c4.08-2,7.21-.79,9.68,2.78,1.52,2.19,2.88,4.49,4.5,6.6a51.5,51.5,0,0,0,4.54,4.45c.13-6-1.76-9.82-5.16-12-3.79-2.39-8.37-3.59-12.69-5-3.22-1.08-6.58-1.74-10.59-2.77,1-2,1.37-3.34,2.22-4.12,2-1.83,1.93-3.26-.22-4.82-2.9-2.1-1.64-4.26.07-6.31.41-.49,1.54-.68,1.6-1.1,1.06-7.93,7.1-7,12.58-7.32,2.35-.14,3.58.79,5.87,3.25,1.06,1.14,3.63,1.14,5.53,1.2,4.17.11,5.9,2.2,5.9,7.29-9-2.49-17.54-6.37-27.06-2.79,2.16.55,4.33,1.08,6.48,1.65,1.66.44,3.33.88,5,1.42.42.13.94,1,1,1,7.66-5.12,9.55,5.94,15.62,5.67.92-.05,2,2.49,2.51,4.7-10.3-1.9-20-5.77-30.19-6.82l-.64,2.64c4,1.11,8,2.57,12.09,3.21,3.37.52,11.82,6.2,13,9.54q4.4,12.4,8.85,24.8c1.78,5,3.93,4.77,9.81-1.4l-13.35-14.87c3.12-3.29,4.7-.81,6.45.81,7.11,6.52,11,7,20.14,1.69l-22.82-12.84,4.24-2.5,5.56,3,.43-.8-2.44-1.24c15.82-.77,28.43,6.62,41.49,12.35l.78-1.35-4.3-5.05c7.27-1.61,14.52-3,21.66-4.88,4.65-1.2,8.84-3.76,9.82-8.8,1-5.36-.76-10-5.26-13.66-1.84-1.5-2.44-4.43-3.85-6.53-2.48-3.7-4.7-7.78-7.94-10.68-1.91-1.72-5.69-2.36-8.42-2-4.33.6-8.42,2.81-12.74,3.71-6.38,1.32-12.87,2.09-19.71,3.16,1.19-5.07,5.83-6.52,9.79-8.43,2.51-1.21,5.39-1.63,8.08-2.5,7.81-2.51,8.47-4.11,4.13-12l11.65-2.59c-3.56-8-7.57-14.94-15.75-20-.41,3.2-1,5.56-1,7.91.11,11.48-9.78,24.18-23.54,23.63a61.31,61.31,0,0,0-11.81.6c-2.1.33-4,1.93-5.59,2.74,5.82,5.12,11.18,10,16.8,14.64a11.4,11.4,0,0,0,6.09,2.67c12.65.73,19.91,8.82,19,22-.41-.39-.79-.57-.89-.86-4.61-12.22-14.39-16.31-26.37-16.08-4.46.09-6.24-1.39-7.94-5.26a74.3,74.3,0,0,0-8.73-15c-2.18-2.87-1.29-4.43.92-5.46,5.09-2.37,10.21-4.33,16.16-4.51,3.7-.11,7.72-2.51,10.9-4.83,6.76-4.94,11.71-11.38,12.1-20.19.08-1.79-1.35-3.65-2.09-5.48-1.95,1.18-4.42,1.95-5.76,3.63-2.43,3.06-3.89,6.91-6.34,10-2.16,2.69-5,4.92-9.2,3.68,7.52-5.73,11.69-14.25,9.34-18.9-1.81-3.57-10.41-6.64-15.45-5.51,3.67,9.81,1.8,16.33-5,18.92-1.86-2.8-4.45-5.29-5.14-8.22-.55-2.34,1-5.3,2-7.84.3-.78,1.78-1.1,3.43-2-7.67.67-11.89,5.41-12.78,13.42-.7,6.26,1.71,9.25,9.48,11.8-3.36,3.09-3.36,3.09-13.87-1.36-3.77,7.24-.2,14.44.28,21.63C209.25,254.13,206,241,211.61,230c3.5-6.83,8.58-13,13.68-18.82,6.5-7.44,24.14-11,33.28-3.15,6.16,5.29,13.9,9.69,23.5,8.68,7.84-.83,15.12,5.81,16.71,15.61,1.16,7.14,4.39,11.74,10,15.63,3.44,2.39,2.94,4.81.24,5.94,1.62,5.6,2.25,11.62,5.07,16.35,2.26,3.8,7.12,6.1,11,8.79.19.13,3.08-2.34,3.19-3.72a10.14,10.14,0,0,0-1.8-6.15c-2.38-3.36-5.66-6.1-7.89-9.54-1.4-2.17-1.57-5.14-2.29-7.75l1.52-.58c4.7,4.38,9.65,8.54,14,13.23,2.89,3.09,6.58,4,10.12,5.48a16.34,16.34,0,0,1,3,2.15l-2.33,3c1.8,3,3.85,6.35,6.62,10.95L340,284.75c.37,4.54,5.38,8.13,2.17,13.24l-14.38-10.35c1.08,6.32,1.74,12.25-2.79,16.89-2.41,2.46-5.94,5.21-9,5.33-7.78.28-12.48,3.4-14.41,11.8l18,14.47c.52.42,1.1.75,1.62,1.17,7.16,5.78,9.2,5.44,14.14-2.72,1.41-2.33,2.4-4.91,3.71-7.63-6.11-1.14-12.41.14-16.2-5.25,7.33-2,14.15-3.6,20.85-5.67a17.24,17.24,0,0,0,5.82-3.72c5.28-4.63,5.11-4.68.12-9.43-1.78-1.7-2.88-4.12-5.12-7.44,11.28,4,20,2.76,28.72-5.42-3.25.24-5.26.67-7.2.43-1.76-.21-3.43-1.14-6.49-2.23l17.12-12.1c-4.8-2.9-9.17-5.14-13-8-1.82-1.37-2.72-4-3.94-6.11-.94-1.61-1.39-3.67-2.65-4.93-11.37-11.31-17.66-24.94-20.2-40.72-.42-2.65-4.59-4.7-7-7-.09-.07-.33,0-.49,0-17-1.18-13.07-2.56-16.76,14.52-5-3.21-5.91-8.77-8.27-13.27-2.22-4.23-3.35-9-5.69-13.18s-5.56-7.76-8.84-12.2c6.5-.2,10.73,3.56,14.91,7.23,1.61,1.41,2.57,3.68,4.33,4.77,1.49.92,3.69.7,5.57,1,.15-1.53.77-3.21.36-4.58-1.17-3.92-2.77-7.71-4.34-11.91l-8.05-1.56c1.37-3,2.54-5.58,3.72-8.19-5.51-5.88-12.21.33-18.59-1.64.16-1.42.34-2.94.56-4.87l-4.4-.21a5.62,5.62,0,0,1,.58-1.43c6.24-7.35,14.91-8.35,23.64-8.49,5.43-.08,10.86,1.2,16.32,1.43,3,.13,6.12-.64,9.18-1-.42,3.5-.42,3.5-13,7.73h17.15c.12,3.74.14,3.82-7.72,5.61-3.48.79-7,1.17-10.57,1.73,0,.56-.09,1.12-.13,1.68l13.56,2,.61.93c-2.94,1.14-5.85,2.38-8.83,3.41-5.3,1.83-6.65,4.69-4.55,10.64l2.37-4.19c5.17,4.52,0,12.87,6,15.92,5.77-3.21,10.62-7,16.12-8.68,7.48-2.22,6.7-7.41,6.93-14.34L337,192.25c-1.49-3-.77-5.84,3.23-11.38a50.62,50.62,0,0,0,6.92-12.1l-6,3.1c1.3-3.25,1.88-5.49,3-7.41,11-18.86,13.59-38.92,8.88-60.09-2.09-9.4-3.88-18.88-6.21-28.23-1.74-7-8.65-9.38-14.56-5.24C317.75,81,306.65,94.44,295.74,108c-5.27,6.57-10.73,13-15.53,19.9-2.89,4.15-4.87,9-6.91,13.65-1.17,2.66-.72,5.74,2.34,6.64,2.17.64,5.39.55,7.08-.68,4-2.95,7.48-6.76,11.15-10.22l-1-1.4-13.75,5.21c1.14-3.45,1.33-6.57,2.95-8.48,5.46-6.49,10.78-13.37,17.37-18.57a72.57,72.57,0,0,0,17.7-20.75,7.27,7.27,0,0,1,.58-.79c2.84,3.07,2.84,3.07-3.45,16.44l25.91-3.32c-.77.89-1.62,2.86-2.95,3.26q-11.67,3.52-23.54,6.38c-6.41,1.56-12.19,4.06-17.25,9.16l40.18-4,.86,1.46c-1.85,1.31-3.53,3.16-5.59,3.82-6.15,2-12.45,3.48-18.69,5.19-1.64.45-3.27,1-4.9,1.46,0,.66.06,1.31.1,2l25.48,1.36c-1,.84-1.95,2.36-3.27,2.74-5.9,1.68-11.89,3-17.85,4.52-.88.22-1.76.48-2.64.73l-.06,1.33,28.25,4.71c-2.18.75-3.7,1.74-5.21,1.73-11,0-21.91-.46-32.87-.43-5.34,0-10.68.76-16.34,1.2.8,6.11-1.39,9-5.93,10.73-3.44,1.3-4.34,5.75-2.38,9.81a48.74,48.74,0,0,0,2.5,4.31c.76,1.2,1.6,2.34,2.41,3.5l-.94,1.1c-1-.62-2.25-1-2.91-1.9-2.22-2.89-4.09-6.06-6.36-8.91a15.68,15.68,0,0,0-5.06-4.53c-2.29-1.09-5.53-3.3-7.2.77-1.44,3.52-.78,6.89,2.79,9.08.84.52,1.81.84,2.68,1.31,1.38.76,4,1.83,3.88,2.3-.38,1.76-1.24,4.08-2.65,4.82A101.16,101.16,0,0,1,249.25,191c4.5-10.22,7.59-20.07-1.63-29.56-4.36,3.43-5.34,7.42-6.13,11.71-1.39,7.44-2.78,14.92-4.9,22.17-1.36,4.63-5.55,6.72-10.18,7.62L224.52,197c-9.8,5.07-14.24,13.21-16.6,24.27-1.38-2.54-2.52-3.81-2.79-5.24-1.87-9.86,5.63-20.38,15.71-21.83,3.52-.51,4.44-2.09,3.86-5.35a88.07,88.07,0,0,1-1.21-9.72c-.51-8,5.15-13,9.69-18.55-.54-.22-.83-.45-1.08-.41-12.67,1.87-11.4,1.48-12.84,14.87a37.15,37.15,0,0,1-1.86,9.17c-2.11,5.55-6.89,7.76-12.38,5.61-4.38-1.72-7.86-1.76-11.19,2.06-1.1,1.26-3.39,1.49-5.68,2.41.15-6-2.4-8.74-7.32-10.53-5.35-1.94-7.8-11.46-5.42-18,1.19-3.25,2.36-6.5,3.54-9.75l-2.18-.78c-1.94,5.13-3.57,10.41-5.9,15.36-2.46,5.22-5.59,10.12-8.59,15.44,3.28,3.58,6.32,6.78,9.2,10.11,4.3,5,3.67,12.43-2.11,17.3,2.76-10.47-3.37-15.68-9.84-21.4-3.3-2.91-5.17-7.93-6.58-12.35-1.36-4.26.62-8.23,4.38-10.86,4.46-3.12,9.14-5.94,13.52-9.17,1.82-1.34,3.13-3.4,4.39-4.83-1.74-1.6-4.66-3-5-4.92a11.39,11.39,0,0,1,2-7.77c5-7,10.85-13.39,20.18-14.46,2-.23,5.61.06,5.81.81.61,2.37.73,5.47-.36,7.56a47.58,47.58,0,0,1-7.76,10.86c-3.35,3.51-5.69,6.68-3.51,11.82.84,2,.42,4.48.65,7.8,4.37-7.06,8.2-13.18,11.94-19.35a3.09,3.09,0,0,0,.47-2.36c-2.11-4.82.44-8.62,2.26-12.74.58-1.3.15-4.38-.72-4.79a145.67,145.67,0,0,0-15-6,3.93,3.93,0,0,0-3.26.78c-5.88,5.25-11.88,10.41-17.32,16.1-2.29,2.4-3.18,6.1-4.94,9.08-1.28,2.17-3.15,4-4.35,6.19s-2.65,4.54-2.36,6.6c1.21,8.41-5.94,12.43-9,18.55-1.26-.83-3.3-1.43-3.65-2.55-1.81-5.74,1.52-12.64,7.26-16.07,1.61-1,3.09-2.13,5.09-3.52-11.49-3.11-28.68,6.26-30.46,16.47-.53,3.05,1.4,6.54,2.48,11l-8.5-2.93c-14.26,2.61-22.79,11.29-22.72,28.45,7.8-11.63,14.55-23.66,31.24-16.68-1.82,3.88-3.41,7.1-4.85,10.4-4.76,10.84-1.33,19.35,9.41,24.45a20.21,20.21,0,0,1,7.14,6.31c-7.89-1.52-15.31-3.87-20.87-9.57-6.42-6.58-6.6-14.17-1.59-25.43-2,.83-4.76,1.12-5.72,2.6-2.2,3.39-4.31,7.23-5,11.14-1.17,6.74-3.87,11.65-10.31,14.6-4.83,2.22-8.22,6-8.64,12.35,5.35-2.19,10.11-5.1,15.22-6s11.06-.37,15.09,5.22a58.85,58.85,0,0,1-7.2.85c-8.37-.05-14,5.07-20,9.83-7.1,5.57-7.65,13.89-10,21.5a4.57,4.57,0,0,0,1.14,3.11,22.16,22.16,0,0,0,6.94-1.77c1-.53,1.37-2.53,1.91-3.9a35,35,0,0,1,14.72-17.68c4.8-2.88,10.52-2,15.94-1.73a36.31,36.31,0,0,1,10.54,1.69c-.85.73-1.64,2-2.55,2.09-4.12.43-8.41,1.27-12.39.57-6-1.06-10,.44-12.8,5.82-2.12,4.13-4.38,8.18-7.15,13.36h29l6.82-6.79a15.15,15.15,0,0,0-1.65-.84c-1.75-.59-3.52-1.14-5.29-1.71.4-1,.58-2.5,1.23-2.74,2.44-.87,5.35-2.33,7.51-1.68,2.92.89,5.31,3.52,8.4,5.73l-7.15,5.1a15.67,15.67,0,0,1,2.47.87c1.31.86,2.56,1.8,3.84,2.71-1.47,1-2.82,2.67-4.42,3-8,1.44-16,2.32-23.93,3.81-2.76.52-5.3,2.21-7.94,3.37l.42,1.92a44.74,44.74,0,0,0,6.68-.7c3.38-.83,6.59-2.58,10-3a134.4,134.4,0,0,1,15.56-.51,2.69,2.69,0,0,1,2,1.57,2.6,2.6,0,0,1-1.15,2.26c-1.56.73-4,2-4.88,1.35-5.67-4.07-10.79-.61-15.08,1.71-4.79,2.58-.61,6.5.59,10.23,5.27-3.08,8.75-9.41,15.44-8.14l.93,1.54c-1.4,1.24-2.71,2.58-4.21,3.67-1.2.87-2.73,1.29-3.92,2.17-5.27,3.89-5.29,6-.3,10.09,1.35,1.1,2.56,2.4,3.83,3.61l-.5,1.55c-1.72-.1-3.58.16-5.15-.38-8.74-3-8.78-3.1-14.39,4.2-3,3.93-6.35,7.79-8.49,12.19-2.5,5.12-3.84,10.8-5.69,16.24l1.79.95,11-11.85,1.5.53c.64,4.25,1.29,8.5,2,13.38a44.2,44.2,0,0,0,18.21-19.53c.07,2.49,1,5.45,0,7.4-3,5.8-6.78,11.2-10.2,16.79-2,3.31-3.93,6.69-5.88,10l1.42,1.7,14.85-2.88-8.77,19.1,1.36.73c11.32-6.46,20-15.65,26.88-26.73l1.55.53c-.77,2.38-1,5.13-2.4,7.09-5,7-10.32,13.76-15.49,20.64-1,1.29-1.73,2.74-2.59,4.12l.83,1.14L148,378.35c3.45,2.08,1.86,4.2.14,6.11-3.54,3.93-7.19,7.77-10.84,11.61-4.22,4.44-5.3,9.7-4.33,16.09l14.55-1.92c-1.81,3.83-3.29,7.05-4.84,10.24-1.87,3.88-4.26,7.58-5.59,11.64-2,6.05.84,9.57,7.17,10.06,2.3.17,4.59.58,7,.9-2.75,4.46-5.35,8.66-8,12.87l1.24,1.6c2.09-.79,4.92-1,6.16-2.47,6.77-8.15,16.85-10,25.68-14.28,6.81-3.29,13.21-7.22,17.56-14.06l-27.38,13.54c.87-2.47.95-4.68,2.06-5.5,5-3.67,10.16-7,15.41-10.31a72.8,72.8,0,0,1,7.57-3.57c5.72-2.71,11.39-5.53,17.16-8.11,4.91-2.19,9.94-4.11,15.44-6.37-.82,1.61-1.29,4-2.73,5.12a63.17,63.17,0,0,1-10.77,7c-7,3.56-12.19,9-17.18,14.87-9.77,11.46-21.46,20.22-36.11,24.56a26.79,26.79,0,0,1-2.9.74c-7.31,1.27-10.86,5.28-9.27,12.35,2.57,11.4-2.74,19.77-9.67,27.43-2.3,2.54-6.21,3.63-9.39,5.38l-1.39-1.5c2.85-6.42,5.93-12.74,8.43-19.29,1.3-3.4,1.54-7.19,2.26-10.8-3,.27-6.06.53-9.09.84-.79.08-1.56.31-3.06.61l12.42-21.64c-11.37,0-21-2.28-27.63-12.21l5.3-4.3-12.92-5.06c10.46-7.89,13.51-17.34,13.2-29.12-2.1,1.3-3.58,2.23-5.08,3.14-2.27,1.39-4.4,3.4-6.86,4s-5.07-.42-7.63-.71c1.07-2.2,1.81-4.67,3.27-6.56C105,391.54,116.83,385.39,121,372L97.52,383.53l-1.14-1.32,8.76-15.89-.72-.94-8.88,8c-.35-4.54-.65-8.36-1-12.86l-7.64,6.07L84,361.26c-6.81,10.62-8.46,22.93-12.18,34.55-1-18.34,6.18-34.49,14.16-51.34l-8.14,4.16c.29-1.88.13-3.12.66-3.88,3.4-4.9,6.8-9.82,10.55-14.45.9-1.12,3.15-1.06,4.67-1.78a8.39,8.39,0,0,0,3.28-2.3c4.36-6.24,8.57-12.58,12.76-18.78-2.12-3-4.89-5.87-6.3-9.27s-3-2.9-5.19-1.43c-4.49,3.08-8.89,6.3-14.16,10.05L89,308.38c2.86,4-9.18,22.34-16.6,25.09-1-4.29-1-4.29,4-17.05-1.61.74-3.69,1.06-4.76,2.28-8.29,9.44-16.5,18.95-24.47,28.66-3.21,3.9-5.75,8.33-9.67,12a47.41,47.41,0,0,1,2.91-6.44c8.29-13.07,17.32-25.57,28.54-36.35a5.32,5.32,0,0,0,1.35-3.94c-.61-4.76-1.6-9.47-2.55-14.81-6.81,1.41-13.18,3.05-19.65,4-6.21.9-12.49,3.45-18.94-.18,6.6-1.18,13.26-2.12,19.79-3.59,6.07-1.36,12-3.19,18-5,2.78-.84,4-2.48,2.38-5.65-1.08-2.12-1.26-4.69-2.08-8l-51.86,12.9-.38-.38c2.33-1.2,4.55-2.79,7-3.54,13-4,26-8.11,39.22-11.41,5.35-1.34,9.55-3.08,12.24-8.09,2.45-4.55,5.34-8.86,8-13.32-5.31-2.56-5.41-4.1-3.62-9,1.36-3.72,1.62-7.94,1.89-12s1-7.33,5.54-8c-4.06-15.84,3.27-28.31,11.25-40.4a18.07,18.07,0,0,0,3.27-11.92c-.38-7.55-.21-15.39,1.44-22.73,2.78-12.35,2.79-24.64,2.17-37.12-1-19.58-1.81-39.17-2.32-58.77a42.71,42.71,0,0,1,2.07-14.24c2.36-7.2.06-13.34-2.69-19.64a19.45,19.45,0,0,1-1.69-7c5.78,3.64,10.84,7.3,12.42,14.36.54,2.38,4.09,4,5.87,6.21,4.07,5.15,8.81,10,11.67,15.82,10.67,21.6,26.85,38.56,44.12,54.76,5.54,5.2,10.4,10.92,19.15,10.86,3.21,0,7,1.78,9.55,3.9,5.94,4.94,12.88,5.89,20,6.27,12.09.64,24.26.37,36.28,1.57,8.91.89,14.11-4.72,19.21-9.61,9.19-8.83,17.22-18.85,25.91-28.21,7.06-7.6,14.09-15.28,21.66-22.36,8-7.46,16.53-14.28,24.92-21.27a5.7,5.7,0,0,1,4.84-.87,36.14,36.14,0,0,0-2.35,3.58c-2.46,4.87-3.84,9.31-2.1,15.4,4.81,16.74,8.58,33.79,12.12,50.85,1.84,8.86.22,17.76-1.77,26.65-2.27,10.12-2,20.53,2,30.28,1.49,3.66,4.74,6.6,7.28,10-1.05.21-2,.44-3,.59-6.55,1.05-7.25,2.79-3.14,8.1,1.53,2,3.21,3.8,5,5.87l-5,2.59L374,207.13l-1.1,2.38-7.22,1.23c1.3,2.22,2.57,4.72,4.15,7,2.12,3,3.72,5.66-1.06,7.84-.79.36-1.34,2.55-1.08,3.69,1.09,4.79,2.54,9.5,3.87,14.28-4.69,1.53-8.8.2-12.4-4.46-4.54-5.89-8.92-11.9-13.6-17.67a15.57,15.57,0,0,0-5.95-4c5.73,10.92,9.11,23.37,20.28,30.31,4.31,2.68,9.36,4.12,14,6.27,3.67,1.71,7.25,3.63,12.16,6.11l-10.49,4.41c4.1,6,9,.82,13.72,1.11,3.15,5,3.31,10.28,1.75,16-.58,2.15.54,4.78.95,7.19.31,1.74,1.12,3.49,1,5.2-.78,12.94,8.23,23,21.27,24a61.91,61.91,0,0,1,16.58,3.56c-11.18,3-22.36,4.46-33.81,3.05l-.82,1.19L410,334.54c-8.12,7.55-21.11,1.37-23.12-8.16-1.28-6.09-1.85-12.34-3.59-18.48-.11,1.05-.13,2.12-.34,3.15-1.37,6.61-2.63,13.24-4.21,19.79-2.15,9-5.69,17.77-6.59,26.85-1.48,14.9-8,27.55-14.77,40.32C352,408.35,347.06,418.88,347,430.92c0,2.62.1,5.23.16,7.84Zm-181-310.84c3-4.32,4.14-8.8,1.59-12.82A170.15,170.15,0,0,0,154,96.14C143.42,83.73,132.62,71.67,126.84,56c-1.43-3.89-5.49-6.87-8.55-10.06-2.37-2.48-4.41-1.43-6.71.74-3.92,3.71-4.76,8.32-4.56,13.22.91,22.42,2.21,44.83,2.82,67.25.24,9,1.89,18.16-1.23,27.2a16.24,16.24,0,0,0,.3,9.77c1.29,3.76,1.65,8.88,5.77,9.4L133,154.1l-14.5-5c7.73-2.88,15.1-1.1,22.53.3-2.17-1.29-4.48-2.14-6.65-3.24a40.3,40.3,0,0,1-6.38-3.84,37.68,37.68,0,0,1-4.24-4.57c11.21.93,20.88,9.91,31.75,1.4-9.79-7-22.36-3.35-33.83-10,3.21-.41,5.13-.73,7.06-.88,2.18-.18,4.37-.22,7.55-.36-18.24-9.8-19.46-10.82-22.2-18.41l27.2,15,.77-1.39c-8.27-7.92-19.36-13-24.21-24.57l13,8.19,1.05-.93a141.06,141.06,0,0,0-15.36-24.74c15,9.43,25.55,23.06,34.56,38.19l1.41-1.15-9.43-18.28,1.41-1.25c1.51,1.28,3.37,2.32,4.48,3.89C154.75,110.74,160.35,119.11,166.24,127.78Zm-29,185.38a11.61,11.61,0,0,0,1.07,3.53c2.15,3.6,5.12,6.82,6.75,10.62,2.75,6.37,8.36,9,13.75,12.05s11.62,3.06,17.42,4.57c11.2,2.92,23.22,1.88,29.92-9,1.07-1.72,2.24-3.38,3.36-5.07l1.79.71c-1,4.13-1.91,8.25-3,12.85l6.78-1.52c-.12.74-.2,1.27-.19,1.25,3-1.5,6-2.87,8.9-4.45.94-.51,2.37-1.75,2.23-2.35-1.09-4.62-1.93-9.47-4.15-13.55-.74-1.35-5.28-.64-8.09-.86a14.81,14.81,0,0,0-1.49,0c-10.76.29-20.06-3.63-28.63-9.77-11.43-8.18-23.13-9.51-35.57-2C145.3,311.9,141.57,312,137.21,313.16ZM281.76,325.4l17.62,31.11c5.72-2.59,12.06-5.2,18.16-8.3,4.21-2.15,4.28-3.84.67-6.75-5.13-4.14-10.07-8.65-15.7-12C296.08,325.67,289.76,318.66,281.76,325.4ZM264,327.81c7.76,9.77,15.36,19.54,23.28,29,.94,1.12,3.83,1.25,5.54.78.74-.2,1.58-3.55,1-4.65-3.87-6.72-8.27-13.14-12.27-19.79C277.43,326.39,272.1,323.72,264,327.81Zm-62-149.5c3.86-.39,5.8-4.52,6.34-10.11.4-4.11,1.57-9.66,4.43-11.66,4.3-3,6.53-7.16,9.76-10.71a19,19,0,0,1,4.82-4.09c3.26-1.76,6.86-2.88,10.12-4.65,2.17-1.17,2.09-2.93-.41-3.79-4.49-1.56-10.06.42-12.85,4.38-1.33,1.89-3,3.64-3.93,5.7-1.89,4.05-5.24,5.6-9.23,5.33-3.14-.2-5,1-5.61,3.65-1.36,5.73-2.48,11.53-3.36,17.35C201.66,172.52,202,175.45,202,178.31Zm-110.36,110c-4.45,1.6-8.84,2.5-12.32,4.78-1.32.87-1,5-.5,7.5.23,1.09,3.57,2.75,4.31,2.28A83.66,83.66,0,0,0,94,294.41c.78-.7.91-2.77.52-3.94C94.21,289.54,92.65,289,91.65,288.33ZM259.87,133.07c-4.61,0-8.05-.32-11.41.09-2.94.36-3.32,3-1.41,5.35,2.51,3.07,4.67,6.43,7.16,9.92C258.81,145.38,256.34,138.72,259.87,133.07ZM79.51,288.52a74.57,74.57,0,0,0,8.27-3.22A3.52,3.52,0,0,0,88.89,282c-.62-1.5-2-3.71-3.16-3.73A25.64,25.64,0,0,0,76.81,280c-.41.14.11,3.59.61,5.4C77.74,286.55,78.81,287.52,79.51,288.52Zm247,75-.68-1c-8.43,5.33-16.9,10.58-25.19,16.1-.73.48-.3,2.7-.39,3.88ZM228,320.74l4,15.4C234.51,330.68,232.74,323.68,228,320.74Zm46.67,28.87-1.29.87c3,3.64,3.54,9,7.85,11.78l1.42-1ZM235.87,222.07l1.92-.39c.48-2.52,1-5,1.43-7.54l-1.71-.87c-1.2,1.49-2.93,2.84-3.39,4.54C233.8,219,235.22,220.63,235.87,222.07Z" transform="translate(-1 -1.02)"/><path d="M347.14,438.76c1.54-.47,3.62-.47,4.54-1.5,7.78-8.7,15.35-17.6,23.18-26.66.49,1.52,1.28,4,2.22,6.91,6.45-2.79,9.28-8.6,11.82-14.11,5.07-11,9.26-22.42,14.11-33.53,4.36-10,7.8-20.58,16.19-28.28a41.8,41.8,0,0,1,3.62-2.68l1,.78c-1.58,4.09-3.51,8.08-4.68,12.28-3.24,11.67-5.93,23.5-9.31,35.13-1.51,5.21-4.34,10-6.25,15.13-3.28,8.8-7.07,17.5-9.28,26.58a58.46,58.46,0,0,1-21.63,33.51,88.93,88.93,0,0,1-11.59,7.79c-2.55,1.39-5.67,1.73-9.15,1.66,14.31-14.24,26.2-29.81,35-47.54-3.82.61-7.53,1.12-11.19,1.87-.79.16-1.54,1.08-2.08,1.83a54,54,0,0,1-24.8,19.24,23.38,23.38,0,0,1-4.75.76c1.23-3.6,2.19-6.44,3.17-9.3Z" transform="translate(-1 -1.02)"/><path d="M172,302.07l-1.5-.41-6.84-2.48c.44-4.84,1.09-10.05,1.28-15.27.06-1.58-1-3.3-1.89-4.77-1.06-1.82-2.56-3.4-3.68-5.19-2.32-3.73-4.46-7.57-6.79-11.29-1.85-3-3.88-5.83-1.34-9.39l-.12-.11c.6.12,1.6.54,1.75.34,3.26-4.42,7.19-2.36,11.24-1.56s8.8,2,12.76,1.05c6.69-1.58,10.92.64,14.31,5.9,5.46-2,6.74-11.88,2.4-17.9-5.3-7.36-12.72-10.89-21.52-11.92-1.47-.17-3-.29-5.29-.51,3.82-3.57,7.62-2.12,11.08-1.72,2.55.3,5,1.48,7.5,2.11,7.73,1.93,12.12,8.17,16.09,14,1.44,2.12-1.13,7.26-2.38,10.84-1.07,3-2.31,6.37-4.5,8.55-3,3-7.19,4.84-10.56,7.55-4.68,3.76-10.8,7.08-13.1,12.07-2.13,4.63-.11,11.21.18,16.92A14.43,14.43,0,0,0,172,302.07Zm-2.79-41.23c2.62,5.05-2.27,10,2.05,14.25,1.07-1.62,2.3-2.84,2.76-4.3,1.59-5,3.58-8.45,9.89-6,2.31.89,3.79-.67,2.37-3.47-2.06-4.05-5.79-4.56-9.69-4.85-4.7-.34-9.4-.86-14.12-1a32,32,0,0,0-5.84.84l-1.48,2.24c8.3-1.15,6.56,3.77,7.09,7.52.31,2.23,1.42,4.34,2.46,7.36C167.46,268.89,165.55,264.12,169.2,260.84Z" transform="translate(-1 -1.02)"/><path d="M151.23,253.27l-2.43-14-5.55,2.28-1.35-.91c2.11-3.69,4.24-7.37,6.34-11.06,3.37-5.92,9.14-10.52,9.39-18.15.17-5-.27-6.73-4.2-10.27-1.47,3.64-2.81,7.39-4.54,10.94-.54,1.12-2.15,1.73-3.28,2.57-.72-1.16-1.51-2.29-2.14-3.5-.38-.71-.44-1.59-.78-2.33-3.1-6.71-2.66-8.16,3.63-11.68a8.43,8.43,0,0,0-11.8,2c-5.63,8.68-2.58,18.94,7.31,26.31-1.71-.37-3.67-.32-5.07-1.18-6.73-4.17-9.42-10.49-8.87-18.24.19-2.82.83-5.61,1-8.42a51.38,51.38,0,0,0-.66-6.84c4.34-4.4,17.06-3.93,23.67,1.77,10.19,8.79,13.1,20,6.36,31.61-4.63,8-4.05,16.52-5.77,24.82a39,39,0,0,1-1.33,4.09Zm-3.9-53.11c-5.29.18-6.3,2.18-3.57,6.73C145,204.56,146.07,202.52,147.33,200.16Z" transform="translate(-1 -1.02)"/><path class="7f44bf27-4bb3-42ae-9c97-01dfa5fed2dd" d="M166.24,127.78c-5.89-8.67-11.49-17-17.27-25.29-1.11-1.57-3-2.61-4.48-3.89l-1.41,1.25,9.43,18.28-1.41,1.15c-9-15.13-19.58-28.76-34.56-38.19a141.06,141.06,0,0,1,15.36,24.74l-1.05.93-13-8.19c4.85,11.56,15.94,16.65,24.21,24.57l-.77,1.39-27.2-15c2.74,7.59,4,8.61,22.2,18.41-3.18.14-5.37.18-7.55.36-1.93.15-3.85.47-7.06.88,11.47,6.6,24,3,33.83,10-10.87,8.51-20.54-.47-31.75-1.4a37.68,37.68,0,0,0,4.24,4.57,40.3,40.3,0,0,0,6.38,3.84c2.17,1.1,4.48,1.95,6.65,3.24-7.43-1.4-14.8-3.18-22.53-.3l14.5,5-18.27,19.38c-4.12-.52-4.48-5.64-5.77-9.4a16.24,16.24,0,0,1-.3-9.77c3.12-9,1.47-18.17,1.23-27.2-.61-22.42-1.91-44.83-2.82-67.25-.2-4.9.64-9.51,4.56-13.22,2.3-2.17,4.34-3.22,6.71-.74,3.06,3.19,7.12,6.17,8.55,10.06,5.78,15.71,16.58,27.77,27.12,40.18A170.15,170.15,0,0,1,167.83,115C170.38,119,169.29,123.46,166.24,127.78Z" transform="translate(-1 -1.02)"/><path class="7f44bf27-4bb3-42ae-9c97-01dfa5fed2dd" d="M137.21,313.16c4.36-1.13,8.09-1.26,10.88-3,12.44-7.53,24.14-6.2,35.57,2,8.57,6.14,17.87,10.06,28.63,9.77a14.81,14.81,0,0,1,1.49,0c2.81.22,7.35-.49,8.09.86,2.22,4.08,3.06,8.93,4.15,13.55.14.6-1.29,1.84-2.23,2.35-2.87,1.58-5.86,2.95-8.9,4.45,0,0,.07-.51.19-1.25l-6.78,1.52c1.06-4.6,2-8.72,3-12.85l-1.79-.71c-1.12,1.69-2.29,3.35-3.36,5.07-6.7,10.86-18.72,11.9-29.92,9-5.8-1.51-12-1.49-17.42-4.57s-11-5.68-13.75-12.05c-1.63-3.8-4.6-7-6.75-10.62A11.61,11.61,0,0,1,137.21,313.16Z" transform="translate(-1 -1.02)"/><path class="7f44bf27-4bb3-42ae-9c97-01dfa5fed2dd" d="M281.76,325.4c8-6.74,14.32.27,20.75,4.08,5.63,3.33,10.57,7.84,15.7,12,3.61,2.91,3.54,4.6-.67,6.75-6.1,3.1-12.44,5.71-18.16,8.3Z" transform="translate(-1 -1.02)"/><path class="7f44bf27-4bb3-42ae-9c97-01dfa5fed2dd" d="M264,327.81c8.08-4.09,13.41-1.42,17.5,5.38,4,6.65,8.4,13.07,12.27,19.79.63,1.1-.21,4.45-1,4.65-1.71.47-4.6.34-5.54-.78C279.38,347.35,271.78,337.58,264,327.81Z" transform="translate(-1 -1.02)"/><path class="7f44bf27-4bb3-42ae-9c97-01dfa5fed2dd" d="M202,178.31c0-2.86-.35-5.79.08-8.6.88-5.82,2-11.62,3.36-17.35.62-2.63,2.47-3.85,5.61-3.65,4,.27,7.34-1.28,9.23-5.33,1-2.06,2.6-3.81,3.93-5.7,2.79-4,8.36-5.94,12.85-4.38,2.5.86,2.58,2.62.41,3.79-3.26,1.77-6.86,2.89-10.12,4.65a19,19,0,0,0-4.82,4.09c-3.23,3.55-5.46,7.71-9.76,10.71-2.86,2-4,7.55-4.43,11.66C207.81,173.79,205.87,177.92,202,178.31Z" transform="translate(-1 -1.02)"/><path class="7f44bf27-4bb3-42ae-9c97-01dfa5fed2dd" d="M91.65,288.33c1,.7,2.56,1.21,2.87,2.14.39,1.17.26,3.24-.52,3.94a83.66,83.66,0,0,1-10.86,8.48c-.74.47-4.08-1.19-4.31-2.28-.53-2.46-.82-6.63.5-7.5C82.81,290.83,87.2,289.93,91.65,288.33Z" transform="translate(-1 -1.02)"/><path class="7f44bf27-4bb3-42ae-9c97-01dfa5fed2dd" d="M259.87,133.07c-3.53,5.65-1.06,12.31-5.66,15.36-2.49-3.49-4.65-6.85-7.16-9.92-1.91-2.32-1.53-5,1.41-5.35C251.82,132.75,255.26,133.07,259.87,133.07Z" transform="translate(-1 -1.02)"/><path class="7f44bf27-4bb3-42ae-9c97-01dfa5fed2dd" d="M79.51,288.52c-.7-1-1.77-2-2.09-3.14-.5-1.81-1-5.26-.61-5.4a25.64,25.64,0,0,1,8.92-1.67c1.12,0,2.54,2.23,3.16,3.73a3.52,3.52,0,0,1-1.11,3.26A74.57,74.57,0,0,1,79.51,288.52Z" transform="translate(-1 -1.02)"/><path class="7f44bf27-4bb3-42ae-9c97-01dfa5fed2dd" d="M326.48,363.52l-26.26,18.94c.09-1.18-.34-3.4.39-3.88,8.29-5.52,16.76-10.77,25.19-16.1Z" transform="translate(-1 -1.02)"/><path class="7f44bf27-4bb3-42ae-9c97-01dfa5fed2dd" d="M228,320.74c4.75,2.94,6.52,9.94,4,15.4Z" transform="translate(-1 -1.02)"/><path class="7f44bf27-4bb3-42ae-9c97-01dfa5fed2dd" d="M274.66,349.61l8,11.68-1.42,1c-4.31-2.79-4.81-8.14-7.85-11.78Z" transform="translate(-1 -1.02)"/><path class="7f44bf27-4bb3-42ae-9c97-01dfa5fed2dd" d="M235.87,222.07c-.65-1.44-2.07-3.09-1.75-4.26.46-1.7,2.19-3.05,3.39-4.54l1.71.87c-.48,2.51-.95,5-1.43,7.54Z" transform="translate(-1 -1.02)"/><path class="7f44bf27-4bb3-42ae-9c97-01dfa5fed2dd" d="M169.2,260.84c-3.65,3.28-1.74,8.05-4.51,12.53-1-3-2.15-5.13-2.46-7.36-.53-3.75,1.21-8.67-7.09-7.52l1.48-2.24a32,32,0,0,1,5.84-.84c4.72.18,9.42.7,14.12,1,3.9.29,7.63.8,9.69,4.85,1.42,2.8-.06,4.36-2.37,3.47-6.31-2.43-8.3,1.07-9.89,6-.46,1.46-1.69,2.68-2.76,4.3C166.93,270.85,171.82,265.89,169.2,260.84Z" transform="translate(-1 -1.02)"/><path class="7f44bf27-4bb3-42ae-9c97-01dfa5fed2dd" d="M147.33,200.16c-1.26,2.36-2.34,4.4-3.57,6.73C141,202.34,142,200.34,147.33,200.16Z" transform="translate(-1 -1.02)"/></svg>